<?xml version="1.0" encoding="utf-8"?>
<!-- Generator: Adobe Illustrator 23.0.1, SVG Export Plug-In . SVG Version: 6.00 Build 0)  -->
<svg version="1.1" id="Capa_1" xmlns="http://www.w3.org/2000/svg" xmlns:xlink="http://www.w3.org/1999/xlink" x="0px" y="0px"
	 viewBox="0 0 50 50" style="enable-background:new 0 0 50 50;" xml:space="preserve">
<style type="text/css">
	.st0{fill:#FFFFFF;}
</style>
<path class="st0" d="M39,1H11C5.5,1,1,5.5,1,11v28c0,5.5,4.5,10,10,10h28c5.5,0,10-4.5,10-10V11C49,5.5,44.5,1,39,1z M33.2,27h-5.1
	v16.4h-7.5V27H17v-6.4h3.6v-4.2c0-3,1.4-7.6,7.6-7.6h5.6V15h-4c-0.7,0-1.6,0.3-1.6,1.8v3.8h5.7L33.2,27z"/>
</svg>
