<?xml version="1.0" encoding="utf-8"?>
<!-- Generator: Adobe Illustrator 23.0.1, SVG Export Plug-In . SVG Version: 6.00 Build 0)  -->
<svg version="1.1" id="Capa_1" xmlns="http://www.w3.org/2000/svg" xmlns:xlink="http://www.w3.org/1999/xlink" x="0px" y="0px"
	 viewBox="0 0 100 100" style="enable-background:new 0 0 100 100;" xml:space="preserve">
<style type="text/css">
	.st0{fill:url(#SVGID_1_);}
	.st1{enable-background:new    ;}
	.st2{fill:#FFFFFF;}
</style>
<g>
	
		<linearGradient id="SVGID_1_" gradientUnits="userSpaceOnUse" x1="4" y1="51" x2="98" y2="51" gradientTransform="matrix(1 0 0 -1 0 100)">
		<stop  offset="0" style="stop-color:#2958F3"/>
		<stop  offset="0.3615" style="stop-color:#444AF3"/>
		<stop  offset="0.7509" style="stop-color:#5A3DF2"/>
		<stop  offset="1" style="stop-color:#6239F2"/>
	</linearGradient>
	<circle class="st0" cx="51" cy="49" r="47"/>
</g>
<g class="st1">
	<path class="st2" d="M71.1,61.9v11.4H32.8V62.8l17.7-18.5c3.3-3.5,5-6.7,5-9.7c0-3.5-2.1-5.3-6.3-5.3c-2.1,0-4.4,0.4-6.8,1.3
		s-4.7,2-7.1,3.6l-4.5-10.1c2.2-1.8,5-3.2,8.5-4.2c3.5-1,7-1.6,10.6-1.6c3.9,0,7.3,0.6,10.3,1.9c2.9,1.2,5.2,3,6.8,5.3
		c1.6,2.3,2.4,5,2.4,8.1c0,3.2-0.6,6-1.9,8.6c-1.2,2.6-3.4,5.5-6.4,8.7L50.4,61.9H71.1z"/>
</g>
</svg>
