<?xml version="1.0" encoding="utf-8"?>
<!-- Generator: Adobe Illustrator 23.0.1, SVG Export Plug-In . SVG Version: 6.00 Build 0)  -->
<svg version="1.1" id="Capa_1" xmlns="http://www.w3.org/2000/svg" xmlns:xlink="http://www.w3.org/1999/xlink" x="0px" y="0px"
	 viewBox="0 0 100 100" style="enable-background:new 0 0 100 100;" xml:space="preserve">
<style type="text/css">
	.st0{fill:url(#SVGID_1_);}
	.st1{enable-background:new    ;}
	.st2{fill:#FFFFFF;}
</style>
<g>
	
		<linearGradient id="SVGID_1_" gradientUnits="userSpaceOnUse" x1="4" y1="51" x2="98" y2="51" gradientTransform="matrix(1 0 0 -1 0 100)">
		<stop  offset="0" style="stop-color:#2958F3"/>
		<stop  offset="0.3615" style="stop-color:#444AF3"/>
		<stop  offset="0.7509" style="stop-color:#5A3DF2"/>
		<stop  offset="1" style="stop-color:#6239F2"/>
	</linearGradient>
	<circle class="st0" cx="51" cy="49" r="47"/>
</g>
<g class="st1">
	<path class="st2" d="M68.3,50.1c1.7,2.3,2.6,5.1,2.6,8.4c0,3.2-0.9,5.9-2.6,8.2C66.6,69,64.2,70.8,61,72c-3.2,1.2-6.9,1.9-11.2,1.9
		c-3.8,0-7.5-0.5-11.1-1.6c-3.6-1-6.4-2.5-8.6-4.2L34.6,58c4.7,3.3,9.6,4.9,14.5,4.9c3.1,0,5.2-0.4,6.5-1.3c1.3-0.9,1.9-2.4,1.9-4.5
		c0-2-0.6-3.5-1.9-4.3c-1.2-0.9-3.3-1.3-6.2-1.3h-8.5v-11h7c2.8,0,4.9-0.4,6.1-1.2c1.2-0.8,1.9-2.1,1.9-3.9c0-1.9-0.6-3.4-1.8-4.4
		c-1.2-1-2.9-1.5-5-1.5c-2.2,0-4.5,0.4-6.9,1.3c-2.4,0.8-4.7,2-6.9,3.6l-4.5-10.1c2.2-1.7,5-3.1,8.6-4.2c3.5-1.1,7.1-1.6,10.7-1.6
		c3.9,0,7.2,0.6,10.1,1.8c2.9,1.2,5.1,3,6.8,5.2c1.6,2.3,2.4,4.9,2.4,7.9c0,2.8-0.7,5.3-2.1,7.4c-1.5,2.1-3.6,3.6-6.3,4.7
		C64.2,46.2,66.6,47.8,68.3,50.1z"/>
</g>
</svg>
