<?xml version="1.0" encoding="utf-8"?>
<!-- Generator: Adobe Illustrator 23.0.1, SVG Export Plug-In . SVG Version: 6.00 Build 0)  -->
<svg version="1.1" id="Capa_1" xmlns="http://www.w3.org/2000/svg" xmlns:xlink="http://www.w3.org/1999/xlink" x="0px" y="0px"
	 viewBox="0 0 50 50" style="enable-background:new 0 0 50 50;" xml:space="preserve">
<style type="text/css">
	.st0{fill:#FFFFFF;}
</style>
<g>
	<path class="st0" d="M25.5,19.9c-3,0-5.5,2.5-5.5,5.5s2.5,5.4,5.5,5.4s5.5-2.5,5.5-5.5C31,22.4,28.5,19.9,25.5,19.9z"/>
	<path class="st0" d="M36,13c-1.1-0.7-2.4-0.9-3.7-0.9c-4.6,0-9.1,0-13.7,0c-1.3,0-2.5,0.3-3.7,0.9c-1.8,1-2.6,2.7-2.8,4.6
		c-0.1,1.8-0.2,3.7-0.2,5.5c0,3,0,6,0.1,9c0,1.3,0.3,2.6,1,3.8c1,1.7,2.7,2.6,4.6,2.7c2.6,0.2,5.2,0.2,7.7,0.3
		c2.6-0.1,5.2-0.1,7.8-0.3c2.3-0.2,4.1-1.2,5-3.5c0.4-1,0.6-2,0.6-3.1c0.1-2.9,0.1-5.9,0.1-8.8c0-1.9,0-3.8-0.2-5.7
		C38.6,15.7,37.8,14.1,36,13z M25.5,33.9c-4.7,0-8.5-3.8-8.5-8.5s3.8-8.4,8.5-8.4s8.4,3.8,8.4,8.4C34,30.1,30.2,33.9,25.5,33.9z
		 M34.3,18.6c-1.1,0-2-0.9-2-2s0.9-2,2-2s2,0.9,2,2C36.3,17.8,35.4,18.6,34.3,18.6z"/>
	<path class="st0" d="M39,1H11C5.5,1,1,5.5,1,11v28c0,5.5,4.5,10,10,10h28c5.5,0,10-4.5,10-10V11C49,5.5,44.5,1,39,1z M41.8,32.4
		c-0.1,1.9-0.5,3.8-1.6,5.4c-1.6,2.3-3.8,3.5-6.5,3.7c-1.6,0.2-3.1,0.2-4.7,0.2c-3.5,0-7,0-10.5-0.1c-1.8,0-3.4-0.4-5-1.3
		c-2.4-1.4-3.8-3.6-4.1-6.3c-0.2-1.7-0.3-3.5-0.3-5.3c0-3.5,0-6.9,0.1-10.4c0-2,0.5-3.8,1.6-5.5c1.6-2.3,3.8-3.5,6.5-3.7
		C18.9,9,20.4,9,22,9c3.5,0,7.1,0,10.6,0.1c2.7,0.1,5.1,0.9,7,3c1.5,1.7,2.1,3.8,2.2,6.1c0.1,2.4,0.1,4.8,0.2,7.1
		C41.9,27.8,41.9,30.1,41.8,32.4z"/>
</g>
</svg>
