<?xml version="1.0" encoding="utf-8"?>
<!-- Generator: Adobe Illustrator 23.0.1, SVG Export Plug-In . SVG Version: 6.00 Build 0)  -->
<svg version="1.1" id="Capa_1" xmlns="http://www.w3.org/2000/svg" xmlns:xlink="http://www.w3.org/1999/xlink" x="0px" y="0px"
	 viewBox="0 0 50 50" style="enable-background:new 0 0 50 50;" xml:space="preserve">
<style type="text/css">
	.st0{fill:#FFFFFF;}
</style>
<g>
	<path class="st0" d="M27.9,21.2L27.9,21.2C27.9,21.1,27.9,21.1,27.9,21.2L27.9,21.2z"/>
	<path class="st0" d="M39,1H11C5.5,1,1,5.5,1,11v28c0,5.5,4.5,10,10,10h28c5.5,0,10-4.5,10-10V11C49,5.5,44.5,1,39,1z M17.2,38.9
		h-6.9V18.2h6.9V38.9z M13.9,14.7c-2,0-3.5-1.6-3.5-3.5s1.6-3.5,3.5-3.5c2,0,3.5,1.6,3.5,3.5S15.8,14.7,13.9,14.7z M42,38.9h-6.9
		V27.8c0-2.8-1-4.7-3.5-4.7c-1.9,0-3,1.3-3.5,2.5c-0.2,0.4-0.2,1.1-0.2,1.7v11.6H21c0,0,0.1-18.7,0-20.7h6.9v2.9
		c0.9-1.4,2.5-3.4,6.2-3.4c4.5,0,7.9,3,7.9,9.3V38.9z"/>
</g>
</svg>
