<?xml version="1.0" encoding="utf-8"?>
<!-- Generator: Adobe Illustrator 23.0.1, SVG Export Plug-In . SVG Version: 6.00 Build 0)  -->
<svg version="1.1" id="Capa_1" xmlns="http://www.w3.org/2000/svg" xmlns:xlink="http://www.w3.org/1999/xlink" x="0px" y="0px"
	 viewBox="0 0 400 100" style="enable-background:new 0 0 400 100;" xml:space="preserve">
<style type="text/css">
	.st0{fill-rule:evenodd;clip-rule:evenodd;fill:#FFFFFF;}
	.st1{fill-rule:evenodd;clip-rule:evenodd;fill:#221F1F;}
	.st2{fill-rule:evenodd;clip-rule:evenodd;fill:#EB2026;}
	.st3{fill-rule:evenodd;clip-rule:evenodd;fill:#14AAE2;}
</style>
<g>
	<g>
		<g>
			<path class="st0" d="M85.7,27.5c0-4-3-7.9-7-7.9c-1.8,0-5.4,0-11.4,0c0.8-1,2.5-3.1,3.2-5.8c1-3.7-5.3-11.5-11.2-7.4
				c-2.8,1.9-17,15.3-19.2,17.6c-1.9,2.1-1.1,3.2-1,3.9c-3-2.2-7.3-1.6-10.3,1.4c-4.2,4.2-1.5,7.7,0.9,11.7c-12.5,0-17.7-1-17.7,8.5
				c0,9.2,5.9,8.4,17.3,8.4c-2.4,2.2-5.1,6.8-0.6,11.9c3.3,3.7,8.9,2.6,10.7,0.5c-0.4,1.2-0.5,2.2,1.4,4.8
				c1.9,2.6,11.7,12.9,15.4,16.1c3.6,3.2,9,2.3,12-0.1C72,88,70.6,82,68,79c11.4,0.1,17.5,0.7,17.4-9c-0.1-8.9-10-7.5-17.2-7.5
				c3.4-3.2,3.3-10.9-1.4-13.6c5.4-3.2,3.5-9.9,1-12.7c1.3,0,9.2,0,12-0.1C82.8,36,85.7,31.5,85.7,27.5z M388.6,40.2
				c-1-3.5-2.7-5.3-6.5-7.5c-3.2-1.8-7.5-1-10.8,1.5c-3.8-2.4-8-3.2-11.1-1.6c-3.1,1.6-5.6,1.8-8.3,7.8c-5.3-4.7-11.5-8.4-18.3-8.6
				c-6.8-0.1-14.5,2.4-18.7,6.5c-1.2-1.2-0.4-0.7-2.7-3.4c3.1-3.8,4.9-7.7,3.2-11.5c-1.6-3.8-4.1-6.2-8.7-7.4
				c-4.6-1.2-11.8-1.2-15.3,1.5c-3.5,2.7-5.8,3.5-6.2,14.3c-1.8,1.2-4.7,3.8-4.7,3.8c-2.2-3.1-8.4-6.5-11.7-6.8
				c-0.3-2.8-0.7-6.9-4.4-7.1c-3.7-0.1-5.3,1.9-5.8,7.5c-6,2.1-11.5,4.6-14.2,10c-3.8-4.6-8.9-7.1-13.4-8
				c-4.6-0.9-10.9,0.9-12.8,2.5c-4.6-3-9-4.1-15.2,1.2c-3.8-2.8-6.9-5.9-15.8-1.6c-4-1.9-10.8-2.4-14.7-1.3c-4,1-8,4.7-9.4,6.2
				c-3.4-4.3-6.2-6.5-9.6-6.6c-3.4-0.1-6.3,0.9-8.4,2.7c-1.9-2.1-5.3-3.7-7.7-3.2c-0.4-2.8-1.2-6-4.1-9c-2.9-2.9-7.7-2.4-7.7-2.4
				H89.1v21.7h11.1c0,0,0,22.9,0.3,28.3c0.3,5.4,5.8,8.9,11.8,8.7c6-0.1,11.8-3.7,11.8-10.5c0-6.8,0-25.5,0-25.5h1.9v36.1h23.2V56.8
				c0,0,2.4-4,6.9-2.8c1.6,11.1,2.7,17.5,12.4,22.3c6.6,3.2,14.6,1.9,17.1,1.9c2.5,0,37.9,0,37.9,0v-7.7c0,0,2.4,7.6,12.4,8
				c7.1,0.2,9.1-5.2,9.1-5.2s4,4.9,13.3,5c0.1,5.6,0,5.6,0,5.6h10.8v-5.8c6.5-1.8,11.1-4.6,15.2-13.3c-0.1,14.9,0,14.2,0,14.2h24.2
				V62.9c0,0,2.9,8.7,14.5,13.3c11.5,4.6,23.2,1.4,25.8-1.1c0-4.7,0-11.8,0-11.8h3v15.3h23.6v-23c1.8-1.3,7.7-1.8,10.3-4.9
				C388.3,47.7,389.6,43.6,388.6,40.2z"/>
		</g>
	</g>
	<g>
		<g>
			<path class="st1" d="M156.8,38.6c-3.2-2.8-5.9-2.2-7.2-1.4c-1.3,0.8-3.5,3.2-4.4,4.4c-1.8-2.6-5.7-6.5-8.8-4.9
				c-3.1,1.5-5.9,3.4-6.2,5.7c-0.3,2.3-0.1,32.7-0.1,32.7l14.7,0.1v-20c0,0,0.1-2.7,3-3.4c2.8-0.6,8.8-3.2,10.1-5
				C159.2,44.9,160.1,41.4,156.8,38.6z M194.3,35.9c-1.5,0-5.2,2.1-6.2,4.4c-4-2.7-7-4.6-13.2-3.9c-6.2,0.8-14.7,10.5-14.2,19.6
				c0.6,10.1,5,12.8,9.3,16.4c5.5,4.6,14.7,1.4,18.6-3.4c-0.1,2.1-0.1,6.1-0.1,6.1h11.6c0,0,0-30.7,0-34.3S195.8,35.9,194.3,35.9z
				 M186.9,55.2c-0.1,3.1-1.9,6.8-5.8,6.8c-3.9,0-6-2.7-6.1-5.9c0-3.9,1.3-7.4,5.7-7.4C185.1,48.8,187.1,52.2,186.9,55.2z M133,30.4
				c0-1.8-0.5-6.2-5.5-6.2c-5,0-33.7,0-33.7,0V37h10.8c0,0,0,24.7,0,30.8c0,9.6,15.6,9.7,15.6-0.4c0-10.1,0-31,0-31s3.4,0.1,7.5,0
				C131.8,36.4,133,32.2,133,30.4z M307.9,32.2c3.5,0.1,4.8-6.1,2.2-8.6c-2.2-2.2-3.2-3.6-9.3-3.8c-3.2-0.1-6.1,1.4-8.8,3.7
				c-2.4,2.1-2.2,9.2-2.2,14c-4-0.3-7.6,0.7-7.7,6.1c-0.1,2.8,3,5.8,6.8,5.8c0,3,0.3,21.7,0.4,25.5c3.1,0,13.8,0,13.8,0
				s0.4-21,0.4-25.6c4.1-0.3,7-1.9,7.1-5.9c0.1-3-1.7-5.8-7-5.8C303.2,31.8,303.9,32.1,307.9,32.2z M235.2,37.8
				c-6.8-3.6-12.1-2.5-17.3,2.7c-2.7-3.1-5.2-4.6-6.5-4.8c-1.3-0.1-6.5,1.5-7,5.9c-0.5,4.4-0.1,33.4-0.1,33.4h14.5
				c0,0,0-18.8,0-23.5c0-5.7,8.9-4.4,8.9,0c0,4.4,0,12.5,0,16.5c0,4,4.5,6.6,7.1,6.7c3.2,0.1,7.4-2.1,7.4-6.5c0-4.4,0-15.6,0-20.3
				C242.2,43.5,239,39.8,235.2,37.8z M382.7,38.6c-3.2-2.8-5.9-2.2-7.2-1.4c-1.3,0.8-3.5,3.2-4.4,4.4c-1.8-2.6-5.7-6.5-8.8-4.9
				c-3.1,1.5-5.9,3.4-6.2,5.7C355.9,44.6,356,75,356,75l14.7,0.1v-20c0,0,0.1-2.7,3-3.4c2.8-0.6,8.8-3.2,10.1-5
				C385.1,44.9,386,41.4,382.7,38.6z M333.3,36.4c-10.7,0.1-21,8.6-20.8,18.3c0.3,9.7,6.8,20,20.3,19.9c7.6-0.1,12-1.5,12-1.5
				c-0.5-3-2.1-10.8-2.1-10.8s-2.7,1.5-8,1.5c-4.3,0-6.6-2.2-6.2-5.8c5.6,0,17,0.1,19.6,0.1c2.6,0,4.1-0.8,4-6.2
				C352,46.4,344,36.2,333.3,36.4z M328.5,51.9c0-4.1,2.5-5.1,4-5.2c2.6-0.1,4.4,1.7,4.6,5.3C334.5,52.1,331.5,51.9,328.5,51.9z
				 M38.5,32.8c-4.1-4.1-8.5,1.3-5.9,4.4c2.6,3.1,8.1,8.8,8.1,8.8s-17.2,0-21,0c-5.3,0-4.8,7.2-0.4,7.2c4.4,0,21.4,0,21.4,0
				s-4.9,5.3-8.4,9c-2.5,2.8,1.5,7.7,5.5,4.3c2.5-2.2,12.1-12.3,13.8-14.1c1.7-1.8,1.9-3.5-0.3-5.9C49.2,44,40.6,34.9,38.5,32.8z"/>
		</g>
	</g>
	<g>
		<g>
			<path class="st2" d="M78.2,24.5c-4.4,0-21.4,0-21.4,0s4.9-5.3,8.4-9c2.5-2.8-1.5-7.7-5.5-4.3C57,13.4,47.5,23.4,45.8,25.2
				c-1.7,1.8-1.9,3.5,0.3,5.9c2.2,2.5,10.8,11.5,12.9,13.7c4.1,4.1,8.5-1.3,5.9-4.4c-2.6-3.1-8.1-8.8-8.1-8.8s17.2,0,21,0
				C83.1,31.7,82.6,24.5,78.2,24.5z M278.8,55.2c-3.7-5.4-8.8-5.7-13-6.7c-0.4-0.1-0.7-0.2-1-0.2v-4.7c0.2,0,0.4,0.1,0.6,0.1
				c2.2,0.4,4.8,2.4,8.3,2.1c3.2-0.3,5.6-4.8,2.5-8.5c-2.3-2.8-5.8-3.8-11.4-3.9v-5.8h-1.7l0,5.8c0,0,0,0,0,0
				c-6.6,0.1-11,3.4-12.9,5.9c-1.9,2.6-3.5,6.1-1.9,10.7c1.5,4.6,3.7,5.2,7.2,6.7c2.5,1.1,5.4,1.8,7.7,2.2l0,5.1
				c-1.2,0-1.9-0.2-4.1-0.6c-3.5-0.6-8.4-3.1-8.4-3.1l-3.2,10.1c0,0,7.5,4.4,14.8,4.4c0.3,0,0.6,0,0.9,0l0,4.4h1.5v-4.5
				c5.8-0.4,9.3-2.5,12-5.6C279.9,65.7,282.3,60.2,278.8,55.2z M259.3,45.1c-0.1-1.6,1.8-1.8,3.8-1.7l0,4.5
				C260.7,47.5,259.5,47.3,259.3,45.1z M266.2,63.9c-0.6,0.1-1,0.1-1.4,0.1v-4.8c0.3,0,0.6,0.1,0.9,0.1
				C268.4,59.7,268.9,63.6,266.2,63.9z"/>
		</g>
	</g>
	<path class="st3" d="M78.2,73.7c5.3,0,4.8-7.2,0.4-7.2c-4.4,0-21.4,0-21.4,0s4.9-5.3,8.4-9c2.5-2.8-1.5-7.7-5.6-4.3
		c-2.5,2.2-12.1,12.3-13.8,14.1c-1.7,1.8-1.9,3.5,0.3,5.9c2.2,2.5,10.8,11.5,12.9,13.7c4.1,4.1,8.5-1.3,5.9-4.4
		c-2.6-3.1-8.1-8.8-8.1-8.8S74.3,73.7,78.2,73.7z"/>
</g>
</svg>
