<?xml version="1.0" encoding="utf-8"?>
<!-- Generator: Adobe Illustrator 23.0.1, SVG Export Plug-In . SVG Version: 6.00 Build 0)  -->
<svg version="1.1" id="Capa_1" xmlns="http://www.w3.org/2000/svg" xmlns:xlink="http://www.w3.org/1999/xlink" x="0px" y="0px"
	 viewBox="0 0 50 50" style="enable-background:new 0 0 50 50;" xml:space="preserve">
<style type="text/css">
	.st0{fill:#FFFFFF;}
</style>
<path class="st0" d="M39,1H11C5.5,1,1,5.5,1,11v28c0,5.5,4.5,10,10,10h28c5.5,0,10-4.5,10-10V11C49,5.5,44.5,1,39,1z M39,20
	c0,0.3,0,0.6,0,0.8c0,8.6-6.6,18.6-18.6,18.6c-3.7,0-7.1-1.1-10-2.9c0.5,0.1,1,0.1,1.6,0.1c3.1,0,5.9-1,8.1-2.8
	c-2.9-0.1-5.3-1.9-6.1-4.5c0.4,0.1,0.8,0.1,1.2,0.1c0.6,0,1.2-0.1,1.7-0.2c-3-0.6-5.2-3.2-5.2-6.4v-0.1c0.9,0.5,1.9,0.8,3,0.8
	c-1.8-1.2-2.9-3.2-2.9-5.4c0-1.2,0.3-2.3,0.9-3.3c3.2,4,8,6.6,13.5,6.8c-0.1-0.5-0.2-1-0.2-1.5c0-3.6,2.9-6.5,6.5-6.5
	c1.9,0,3.6,0.8,4.8,2.1c1.5-0.3,2.9-0.8,4.2-1.6c-0.5,1.5-1.5,2.8-2.9,3.6c1.3-0.2,2.6-0.5,3.8-1C41.3,18,40.2,19.1,39,20z"/>
</svg>
