<?xml version="1.0" encoding="utf-8"?>
<!-- Generator: Adobe Illustrator 23.0.1, SVG Export Plug-In . SVG Version: 6.00 Build 0)  -->
<svg version="1.1" id="Capa_1" xmlns="http://www.w3.org/2000/svg" xmlns:xlink="http://www.w3.org/1999/xlink" x="0px" y="0px"
	 viewBox="0 0 50 50" style="enable-background:new 0 0 50 50;" xml:space="preserve">
<style type="text/css">
	.st0{fill:#FFFFFF;}
</style>
<g>
	<polygon class="st0" points="22.8,30.1 31.5,24.4 22.8,18.7 	"/>
	<path class="st0" d="M39,1H11C5.5,1,1,5.5,1,11v28c0,5.5,4.5,10,10,10h28c5.5,0,10-4.5,10-10V11C49,5.5,44.5,1,39,1z M41,31
		c0,2.5-2,4.5-4.5,4.5H15.2c-2.5,0-4.5-2-4.5-4.5V18.9c0-2.5,2-4.5,4.5-4.5h21.2c2.5,0,4.5,2,4.5,4.5L41,31L41,31z"/>
</g>
</svg>
