<?xml version="1.0" encoding="utf-8"?>
<!-- Generator: Adobe Illustrator 23.0.1, SVG Export Plug-In . SVG Version: 6.00 Build 0)  -->
<svg version="1.1" id="Capa_1" xmlns="http://www.w3.org/2000/svg" xmlns:xlink="http://www.w3.org/1999/xlink" x="0px" y="0px"
	 viewBox="0 0 350 611" style="enable-background:new 0 0 350 611;" xml:space="preserve">
<style type="text/css">
	.st0{fill:#FFFFFF;}
	.st1{fill:#F2F2F2;}
	.st2{fill:none;}
	.st3{fill-rule:evenodd;clip-rule:evenodd;}
	.st4{fill:#0097F6;}
	.st5{fill:#C1C1C1;}
	.st6{fill:none;stroke:#EAEAEA;stroke-width:0.3614;stroke-miterlimit:10;}
	.st7{fill:#0096F9;}
	.st8{fill:#363737;}
	.st9{font-family:'Avenir-Book';}
	.st10{font-size:15.2172px;}
	.st11{fill:none;stroke:#0096F9;stroke-width:1.0064;stroke-miterlimit:10;}
	.st12{fill:#8C8C8C;}
	.st13{fill:#DFE1E2;}
	.st14{fill:none;stroke:#B0B0B0;stroke-width:0.5032;stroke-miterlimit:10;}
</style>
<rect x="-1.8" class="st0" width="351.3" height="618.9"/>
<rect id="Navigation_Bar_Background_2_" x="-0.2" class="st1" width="351.3" height="59.5"/>
<g>
	<g>
		<rect x="0.5" class="st2" width="348.7" height="21.8"/>
	</g>
	<path class="st3" d="M332.9,9.3c1,0,1.6,0.8,1.6,1.9c0,1-0.6,1.9-1.6,1.9V9.3z"/>
	<path d="M330.7,6.5c0.6,0,1.1,0.5,1.1,1.1v7.1c0,0.6-0.5,1.1-1.1,1.1h-21.3c-0.6,0-1.1-0.5-1.1-1.1V7.6c0-0.6,0.5-1.1,1.1-1.1
		H330.7 M330.7,6h-21.3c-0.9,0-1.6,0.7-1.6,1.6v7.1c0,0.9,0.7,1.6,1.6,1.6h21.3c0.9,0,1.6-0.7,1.6-1.6V7.6
		C332.3,6.7,331.6,6,330.7,6L330.7,6z"/>
	<path class="st3" d="M310,7.1h20.1c0.6,0,1.1,0.5,1.1,1.1v6c0,0.6-0.5,1.1-1.1,1.1H310c-0.6,0-1.1-0.5-1.1-1.1v-6
		C308.9,7.6,309.3,7.1,310,7.1z"/>
	<path class="st3" d="M10.6,8.2c1.6,0,3,1.3,3,3c0,1.6-1.3,3-3,3s-3-1.3-3-3C7.6,9.6,9,8.2,10.6,8.2z"/>
	<path class="st3" d="M18.2,8.2c1.6,0,3,1.3,3,3c0,1.6-1.3,3-3,3c-1.6,0-3-1.3-3-3C15.2,9.6,16.6,8.2,18.2,8.2z"/>
	<path class="st3" d="M25.9,8.2c1.6,0,3,1.3,3,3c0,1.6-1.3,3-3,3c-1.6,0-3-1.3-3-3C22.8,9.6,24.2,8.2,25.9,8.2z"/>
	<path d="M33.5,8.2c-1.6,0-3,1.3-3,3c0,1.6,1.3,3,3,3c1.6,0,3-1.3,3-3S35.1,8.2,33.5,8.2L33.5,8.2z"/>
	<path d="M41.1,8.2c-1.6,0-3,1.3-3,3c0,1.6,1.3,3,3,3c1.6,0,3-1.3,3-3S42.8,8.2,41.1,8.2L41.1,8.2z"/>
	<polygon points="337.2,10.9 340.5,5.5 340,9.9 342.7,9.9 338.9,15.3 339.4,10.9 	"/>
	<g>
		<path d="M272.8,15.6V9h-2.4V8c0.3,0,0.6,0,0.9-0.1c0.3,0,0.6-0.1,0.8-0.3c0.2-0.1,0.4-0.3,0.6-0.5c0.2-0.2,0.3-0.5,0.3-0.8h0.8
			v9.3H272.8z"/>
		<path d="M277.1,10c0-0.4,0.1-0.7,0.1-1.1c0.1-0.3,0.2-0.7,0.3-1c0.1-0.3,0.3-0.6,0.5-0.8c0.2-0.2,0.5-0.4,0.8-0.6
			c0.3-0.1,0.7-0.2,1.2-0.2c0.5,0,0.9,0.1,1.2,0.2c0.3,0.1,0.6,0.3,0.8,0.6c0.2,0.2,0.4,0.5,0.5,0.8c0.1,0.3,0.2,0.6,0.3,1
			C283,9.3,283,9.6,283,10c0,0.4,0,0.7,0,1s0,0.7,0,1c0,0.4-0.1,0.7-0.1,1.1c0,0.4-0.2,0.7-0.3,1c-0.1,0.3-0.3,0.6-0.5,0.8
			c-0.2,0.2-0.5,0.4-0.8,0.5c-0.3,0.1-0.7,0.2-1.2,0.2c-0.5,0-0.9-0.1-1.2-0.2c-0.3-0.1-0.6-0.3-0.8-0.5c-0.2-0.2-0.4-0.5-0.5-0.8
			c-0.1-0.3-0.2-0.6-0.3-1c-0.1-0.3-0.1-0.7-0.1-1.1c0-0.4,0-0.7,0-1S277.1,10.4,277.1,10z M278.3,12.2c0,0.4,0.1,0.8,0.2,1.2
			c0.1,0.4,0.3,0.7,0.6,0.9c0.3,0.3,0.6,0.4,1.1,0.4c0.5,0,0.8-0.1,1.1-0.4c0.3-0.3,0.4-0.6,0.6-0.9c0.1-0.4,0.2-0.8,0.2-1.2
			c0-0.4,0-0.8,0-1.1c0-0.2,0-0.5,0-0.7s0-0.5-0.1-0.8c0-0.3-0.1-0.5-0.2-0.8c-0.1-0.3-0.2-0.5-0.3-0.7c-0.1-0.2-0.3-0.3-0.5-0.5
			s-0.5-0.2-0.8-0.2s-0.6,0.1-0.8,0.2c-0.2,0.1-0.4,0.3-0.5,0.5c-0.1,0.2-0.2,0.4-0.3,0.7s-0.1,0.5-0.2,0.8c0,0.3-0.1,0.5-0.1,0.8
			s0,0.5,0,0.7C278.3,11.4,278.3,11.8,278.3,12.2z"/>
		<path d="M284.4,10c0-0.4,0.1-0.7,0.1-1.1c0.1-0.3,0.2-0.7,0.3-1c0.1-0.3,0.3-0.6,0.5-0.8c0.2-0.2,0.5-0.4,0.8-0.6
			c0.3-0.1,0.7-0.2,1.2-0.2s0.9,0.1,1.2,0.2c0.3,0.1,0.6,0.3,0.8,0.6c0.2,0.2,0.4,0.5,0.5,0.8c0.1,0.3,0.2,0.6,0.3,1
			s0.1,0.7,0.1,1.1c0,0.4,0,0.7,0,1s0,0.7,0,1c0,0.4-0.1,0.7-0.1,1.1c0,0.4-0.2,0.7-0.3,1c-0.1,0.3-0.3,0.6-0.5,0.8
			c-0.2,0.2-0.5,0.4-0.8,0.5c-0.3,0.1-0.7,0.2-1.2,0.2s-0.9-0.1-1.2-0.2c-0.3-0.1-0.6-0.3-0.8-0.5c-0.2-0.2-0.4-0.5-0.5-0.8
			s-0.2-0.6-0.3-1c-0.1-0.3-0.1-0.7-0.1-1.1c0-0.4,0-0.7,0-1S284.4,10.4,284.4,10z M285.5,12.2c0,0.4,0.1,0.8,0.2,1.2
			c0.1,0.4,0.3,0.7,0.6,0.9c0.3,0.3,0.6,0.4,1.1,0.4c0.5,0,0.8-0.1,1.1-0.4c0.3-0.3,0.4-0.6,0.6-0.9c0.1-0.4,0.2-0.8,0.2-1.2
			c0-0.4,0-0.8,0-1.1c0-0.2,0-0.5,0-0.7s0-0.5-0.1-0.8c0-0.3-0.1-0.5-0.2-0.8c-0.1-0.3-0.2-0.5-0.3-0.7c-0.1-0.2-0.3-0.3-0.5-0.5
			s-0.5-0.2-0.8-0.2s-0.6,0.1-0.8,0.2c-0.2,0.1-0.4,0.3-0.5,0.5c-0.1,0.2-0.2,0.4-0.3,0.7s-0.1,0.5-0.2,0.8c0,0.3-0.1,0.5-0.1,0.8
			s0,0.5,0,0.7C285.5,11.4,285.5,11.8,285.5,12.2z"/>
		<path d="M292.4,7.9c0.1-0.3,0.2-0.6,0.3-0.8c0.2-0.2,0.4-0.4,0.6-0.6c0.3-0.1,0.6-0.2,1-0.2s0.7,0.1,1,0.2
			c0.3,0.1,0.5,0.3,0.6,0.6c0.2,0.2,0.3,0.5,0.3,0.8c0.1,0.3,0.1,0.6,0.1,1c0,0.3,0,0.7-0.1,1s-0.2,0.6-0.4,0.8
			c-0.2,0.2-0.4,0.4-0.6,0.6c-0.3,0.1-0.6,0.2-1,0.2c-0.4,0-0.7-0.1-1-0.2c-0.3-0.1-0.5-0.3-0.6-0.5c-0.2-0.2-0.3-0.5-0.4-0.8
			c-0.1-0.3-0.1-0.6-0.1-1C292.3,8.6,292.4,8.2,292.4,7.9z M293.3,9.6c0,0.2,0.1,0.4,0.1,0.6c0,0.2,0.2,0.3,0.3,0.5
			c0.1,0.1,0.3,0.2,0.6,0.2c0.2,0,0.4-0.1,0.6-0.2c0.1-0.1,0.3-0.3,0.3-0.5c0.1-0.2,0.1-0.4,0.2-0.6c0-0.2,0-0.4,0-0.6
			c0-0.2,0-0.4,0-0.6c0-0.2-0.1-0.4-0.1-0.6c-0.1-0.2-0.2-0.3-0.3-0.5c-0.1-0.1-0.3-0.2-0.6-0.2c-0.2,0-0.4,0.1-0.6,0.2
			c-0.2,0.1-0.3,0.3-0.3,0.5c-0.1,0.2-0.1,0.4-0.2,0.6c0,0.2,0,0.4,0,0.6C293.3,9.2,293.3,9.4,293.3,9.6z M301.7,6.1l-7,9.7h-1.1
			l7-9.7H301.7z M298.9,12.1c0.1-0.3,0.2-0.6,0.3-0.8c0.2-0.2,0.4-0.4,0.6-0.6c0.2-0.2,0.6-0.2,1-0.2c0.4,0,0.7,0.1,1,0.2
			c0.3,0.1,0.5,0.3,0.6,0.6c0.2,0.2,0.3,0.5,0.3,0.8c0.1,0.3,0.1,0.6,0.1,1c0,0.3,0,0.7-0.1,1c-0.1,0.3-0.2,0.6-0.4,0.8
			c-0.2,0.2-0.4,0.4-0.6,0.6c-0.3,0.1-0.6,0.2-1,0.2c-0.4,0-0.7-0.1-1-0.2c-0.3-0.1-0.5-0.3-0.6-0.5c-0.2-0.2-0.3-0.5-0.4-0.8
			s-0.1-0.6-0.1-1C298.8,12.8,298.8,12.5,298.9,12.1z M299.8,13.7c0,0.2,0.1,0.4,0.1,0.6c0.1,0.2,0.2,0.3,0.3,0.5
			c0.1,0.1,0.3,0.2,0.6,0.2c0.2,0,0.4-0.1,0.6-0.2c0.2-0.1,0.3-0.3,0.3-0.5c0.1-0.2,0.1-0.4,0.2-0.6c0-0.2,0-0.4,0-0.6
			c0-0.2,0-0.4,0-0.6c0-0.2-0.1-0.4-0.1-0.6c-0.1-0.2-0.2-0.3-0.3-0.5c-0.1-0.1-0.3-0.2-0.6-0.2c-0.2,0-0.4,0.1-0.6,0.2
			c-0.1,0.1-0.3,0.3-0.3,0.5c-0.1,0.2-0.1,0.4-0.2,0.6c0,0.2,0,0.4,0,0.6C299.8,13.3,299.8,13.5,299.8,13.7z"/>
	</g>
	<g>
		<path d="M58.9,7.7c2.1,0,4.1,0.8,5.5,2l1-1.1C63.7,7.1,61.4,6,58.9,6c-2.5,0-4.8,1.1-6.5,2.6l1,1.1C54.9,8.4,56.8,7.7,58.9,7.7z"
			/>
		<path d="M58.9,11c1.2,0,2.4,0.5,3.4,1.2l1.1-1.2c-1.2-1-2.7-1.7-4.4-1.7c-1.7,0-3.3,0.7-4.4,1.7l1.1,1.2
			C56.5,11.5,57.6,11,58.9,11z"/>
		<path d="M61.2,13.4c-0.6-0.5-1.4-0.8-2.2-0.8c-0.8,0-1.6,0.3-2.2,0.8l2.2,2.5L61.2,13.4z"/>
	</g>
	<g>
		<path d="M152,13.2c0,0.4,0.2,0.7,0.4,0.9c0.2,0.2,0.5,0.3,0.9,0.3c0.4,0,0.7-0.1,0.9-0.3c0.2-0.2,0.4-0.5,0.5-0.8
			c0.1-0.3,0.2-0.6,0.3-1c0.1-0.4,0.1-0.7,0.1-1l0,0c-0.2,0.4-0.5,0.6-0.8,0.8s-0.7,0.3-1.1,0.3s-0.8-0.1-1.2-0.2
			c-0.3-0.1-0.6-0.3-0.9-0.6c-0.2-0.3-0.4-0.6-0.6-1c-0.1-0.4-0.2-0.8-0.2-1.3c0-0.4,0.1-0.8,0.2-1.2c0.1-0.4,0.3-0.7,0.6-1
			c0.3-0.3,0.6-0.5,1-0.6c0.4-0.2,0.8-0.2,1.3-0.2c0.6,0,1.2,0.1,1.6,0.4c0.4,0.2,0.7,0.6,1,1c0.2,0.4,0.4,0.9,0.5,1.5
			c0.1,0.6,0.1,1.2,0.1,1.8c0,0.5-0.1,1.1-0.2,1.6c-0.1,0.5-0.3,1-0.6,1.5c-0.3,0.4-0.6,0.8-1,1.1c-0.4,0.3-1,0.4-1.6,0.4
			c-0.4,0-0.7-0.1-1-0.2c-0.3-0.1-0.6-0.3-0.8-0.5c-0.2-0.2-0.4-0.5-0.6-0.8c-0.2-0.3-0.2-0.6-0.3-1L152,13.2L152,13.2z M153.5,7.5
			c-0.3,0-0.5,0-0.7,0.1c-0.2,0.1-0.4,0.2-0.5,0.4c-0.1,0.2-0.2,0.4-0.3,0.6c-0.1,0.2-0.1,0.5-0.1,0.7c0,0.2,0,0.5,0.1,0.7
			c0.1,0.2,0.2,0.4,0.3,0.6c0.1,0.2,0.3,0.3,0.5,0.4c0.2,0.1,0.4,0.2,0.7,0.2s0.5-0.1,0.7-0.2c0.2-0.1,0.4-0.2,0.5-0.4
			s0.2-0.4,0.3-0.6s0.1-0.5,0.1-0.7c0-0.2,0-0.5-0.1-0.7c-0.1-0.2-0.2-0.4-0.3-0.6c-0.1-0.2-0.3-0.3-0.5-0.4
			C154,7.5,153.8,7.5,153.5,7.5z"/>
		<path d="M158.2,9h1.8v1.7h-1.8V9z M158.2,13.8h1.8v1.7h-1.8V13.8z"/>
		<path d="M167.8,13.4h-1.2v2.1h-1.4v-2.1h-4v-1.5l4-5.5h1.4v5.8h1.2V13.4z M162.4,12.2h2.7V8.1l0,0L162.4,12.2z"/>
		<path d="M169,7.9c0.3,0,0.6,0,0.9-0.1c0.3-0.1,0.6-0.1,0.8-0.3c0.2-0.1,0.4-0.3,0.6-0.5c0.2-0.2,0.3-0.4,0.3-0.7h1.2v9.2h-1.6V9.1
			H169V7.9z"/>
		<path d="M182.9,6.2h1.7l3.6,9.4h-1.7l-0.9-2.4h-3.8l-0.9,2.4h-1.7L182.9,6.2z M182.3,11.9h2.8l-1.4-4l0,0L182.3,11.9z"/>
		<path d="M189.2,6.2h2.3l2.5,7.3l0,0l2.5-7.3h2.2v9.4h-1.5V8.3l0,0l-2.5,7.2h-1.3l-2.5-7.2l0,0v7.2h-1.7V6.2z"/>
	</g>
</g>
<g>
	<path class="st4" d="M157.2,33.5h4c0.7,0,1.3,0.1,1.7,0.3c0.4,0.2,0.8,0.4,1.1,0.7c0.3,0.3,0.4,0.6,0.6,1c0.1,0.4,0.2,0.7,0.2,1.1
		c0,0.3-0.1,0.7-0.2,1.1c-0.1,0.4-0.3,0.7-0.6,1c-0.3,0.3-0.6,0.5-1.1,0.7c-0.5,0.2-1,0.3-1.7,0.3h-2.4v4.9h-1.5V33.5z M158.8,38.4
		h2c0.3,0,0.6,0,0.9-0.1c0.3,0,0.5-0.1,0.8-0.3c0.3-0.2,0.4-0.3,0.5-0.5s0.2-0.5,0.2-0.9c0-0.4-0.1-0.7-0.2-0.9
		c-0.1-0.2-0.3-0.4-0.5-0.5c-0.2-0.1-0.5-0.2-0.8-0.3c-0.3,0-0.6-0.1-0.9-0.1h-2V38.4z"/>
	<path class="st4" d="M165.9,38.1c0.4-0.4,0.8-0.6,1.4-0.8c0.5-0.2,1-0.3,1.6-0.3c0.5,0,1,0.1,1.4,0.2c0.4,0.1,0.7,0.3,1,0.5
		c0.2,0.2,0.4,0.5,0.6,0.8c0.2,0.3,0.2,0.6,0.2,0.9v3.9c0,0.3,0,0.5,0,0.7s0,0.4,0,0.6h-1.3c0-0.4,0-0.7,0-1.1l0,0
		c-0.3,0.5-0.7,0.8-1.1,1s-0.9,0.3-1.5,0.3c-0.3,0-0.7,0-1-0.1c-0.3-0.1-0.6-0.2-0.8-0.4c-0.2-0.2-0.4-0.4-0.6-0.7
		c-0.1-0.3-0.2-0.6-0.2-1c0-0.5,0.1-0.9,0.3-1.2s0.5-0.6,0.9-0.8c0.4-0.2,0.8-0.3,1.3-0.4c0.5-0.1,1-0.1,1.6-0.1h1v-0.3
		c0-0.2,0-0.4-0.1-0.6c-0.1-0.2-0.2-0.4-0.3-0.5c-0.1-0.1-0.3-0.3-0.5-0.4c-0.2-0.1-0.5-0.1-0.8-0.1s-0.5,0-0.7,0.1
		c-0.2,0.1-0.4,0.1-0.6,0.2c-0.2,0.1-0.3,0.2-0.5,0.3c-0.1,0.1-0.3,0.2-0.4,0.3L165.9,38.1z M170,41.1c-0.3,0-0.7,0-1,0.1
		c-0.3,0-0.7,0.1-0.9,0.2c-0.3,0.1-0.5,0.2-0.7,0.4s-0.3,0.4-0.3,0.7c0,0.4,0.1,0.7,0.4,0.9s0.7,0.3,1.2,0.3c0.4,0,0.7-0.1,1-0.2
		s0.5-0.3,0.7-0.5c0.2-0.2,0.3-0.4,0.4-0.7c0.1-0.3,0.1-0.5,0.1-0.8V41L170,41.1L170,41.1z"/>
	<path class="st4" d="M181.2,44.6c0,0.6-0.1,1.1-0.3,1.5c-0.2,0.4-0.5,0.9-0.8,1.2c-0.4,0.3-0.8,0.6-1.3,0.8s-1,0.3-1.6,0.3
		c-0.7,0-1.3-0.1-1.9-0.3c-0.6-0.2-1.1-0.5-1.7-1l0.9-1.2c0.4,0.4,0.8,0.7,1.2,0.9c0.4,0.2,0.9,0.3,1.4,0.3s0.9-0.1,1.3-0.2
		c0.3-0.2,0.6-0.3,0.8-0.6c0.2-0.2,0.3-0.5,0.4-0.8c0.1-0.3,0.1-0.6,0.1-0.9v-1.1l0,0c-0.3,0.4-0.6,0.8-1.1,1s-0.9,0.3-1.5,0.3
		c-0.5,0-1-0.1-1.5-0.3c-0.5-0.2-0.9-0.5-1.2-0.8c-0.3-0.3-0.6-0.7-0.8-1.2c-0.2-0.5-0.3-1-0.3-1.5s0.1-1,0.3-1.5
		c0.2-0.5,0.4-0.9,0.8-1.2c0.3-0.4,0.7-0.6,1.2-0.8c0.5-0.2,1-0.3,1.5-0.3s1,0.1,1.5,0.3s0.8,0.5,1.1,0.9l0,0v-1.1h1.4v7.4H181.2z
		 M177.4,38.3c-0.4,0-0.7,0.1-1,0.2c-0.3,0.1-0.6,0.3-0.8,0.5c-0.2,0.2-0.4,0.5-0.5,0.8c-0.1,0.3-0.2,0.7-0.2,1
		c0,0.7,0.2,1.3,0.7,1.8c0.4,0.5,1,0.7,1.8,0.7s1.3-0.2,1.8-0.7c0.4-0.5,0.7-1,0.7-1.8c0-0.4-0.1-0.7-0.2-1s-0.3-0.6-0.5-0.8
		c-0.2-0.2-0.5-0.4-0.8-0.5C178.1,38.4,177.7,38.3,177.4,38.3z"/>
	<path class="st4" d="M183.1,38.1c0.4-0.4,0.8-0.6,1.4-0.8c0.5-0.2,1-0.3,1.6-0.3c0.5,0,1,0.1,1.4,0.2c0.4,0.1,0.7,0.3,1,0.5
		c0.2,0.2,0.4,0.5,0.6,0.8c0.2,0.3,0.2,0.6,0.2,0.9v3.9c0,0.3,0,0.5,0,0.7s0,0.4,0,0.6h-1.2c0-0.4,0-0.7,0-1.1l0,0
		c-0.3,0.5-0.7,0.8-1.1,1s-0.9,0.3-1.5,0.3c-0.3,0-0.7,0-1-0.1c-0.3-0.1-0.6-0.2-0.8-0.4s-0.4-0.4-0.6-0.7c-0.1-0.3-0.2-0.6-0.2-1
		c0-0.5,0.1-0.9,0.3-1.2s0.5-0.6,0.9-0.8c0.4-0.2,0.8-0.3,1.3-0.4s1-0.1,1.6-0.1h1v-0.3c0-0.2,0-0.4-0.1-0.6
		c-0.1-0.2-0.2-0.4-0.3-0.5c-0.1-0.1-0.3-0.3-0.5-0.4s-0.5-0.1-0.8-0.1s-0.5,0-0.7,0.1c-0.2,0.1-0.4,0.1-0.6,0.2
		c-0.2,0.1-0.3,0.2-0.5,0.3c-0.1,0.1-0.3,0.2-0.4,0.3L183.1,38.1z M187,41.1c-0.3,0-0.7,0-1,0.1c-0.3,0-0.7,0.1-0.9,0.2
		c-0.3,0.1-0.5,0.2-0.7,0.4c-0.2,0.2-0.3,0.4-0.3,0.7c0,0.4,0.1,0.7,0.4,0.9s0.7,0.3,1.2,0.3c0.4,0,0.7-0.1,1-0.2s0.5-0.3,0.7-0.5
		s0.3-0.4,0.4-0.7s0.1-0.5,0.1-0.8V41H187V41.1z"/>
	<path class="st4" d="M190.8,37.1h1.4v1.1l0,0c0.1-0.2,0.2-0.4,0.4-0.5c0.2-0.2,0.3-0.3,0.5-0.4c0.2-0.1,0.4-0.2,0.6-0.3
		c0.2-0.1,0.5-0.1,0.7-0.1c0.2,0,0.4,0,0.6,0.1l-0.1,1.5c-0.1,0-0.2-0.1-0.3-0.1s-0.2,0-0.3,0c-0.7,0-1.2,0.2-1.6,0.6
		c-0.4,0.4-0.5,1-0.5,1.8v3.8h-1.4L190.8,37.1L190.8,37.1z"/>
</g>
<g id="Contact_Detail_Navigation_Bar_2_">
	<polygon id="Back_Button_2_" class="st4" points="31.4,31.1 29.4,29.3 19.7,39 29.4,48.8 31.4,47 23.4,39 	"/>
</g>
<g>
	<g>
		<rect x="-0.8" y="59.4" class="st5" width="352.7" height="0.2"/>
	</g>
</g>
<rect x="-0.2" class="st6" width="350.4" height="618.1"/>
<g>
	<g>
		<path class="st7" d="M83.1,142.3h1.6l5.6,13h-2.1l-1.3-3.2h-6.2l-1.3,3.2h-2.1L83.1,142.3z M86.2,150.6l-2.4-6l0,0l-2.5,6H86.2z"
			/>
		<path class="st7" d="M93.5,142.3v8c0,0.4,0.1,0.8,0.2,1.3c0.1,0.4,0.3,0.8,0.6,1.2s0.6,0.7,1,0.9s0.9,0.3,1.5,0.3s1.1-0.1,1.5-0.3
			s0.8-0.5,1-0.9s0.4-0.8,0.6-1.2c0.1-0.4,0.2-0.9,0.2-1.3v-8h1.8v8.3c0,0.8-0.1,1.5-0.4,2.1s-0.6,1.2-1.1,1.6c-0.5,0.5-1,0.8-1.6,1
			s-1.3,0.4-2,0.4s-1.4-0.1-2-0.4c-0.6-0.2-1.1-0.6-1.6-1c-0.5-0.5-0.8-1-1.1-1.6c-0.3-0.6-0.4-1.3-0.4-2.1v-8.3H93.5z"/>
		<path class="st7" d="M107.6,144h-4.2v-1.7h10.2v1.7h-4.2v11.4h-1.8V144z"/>
		<path class="st7" d="M121.5,155.7c-1,0-1.9-0.2-2.7-0.5c-0.8-0.3-1.5-0.8-2.1-1.4c-0.6-0.6-1.1-1.3-1.4-2.2
			c-0.3-0.8-0.5-1.7-0.5-2.7s0.2-1.9,0.5-2.7s0.8-1.6,1.4-2.2c0.6-0.6,1.3-1.1,2.1-1.4c0.8-0.3,1.7-0.5,2.7-0.5s1.9,0.2,2.7,0.5
			c0.8,0.4,1.5,0.8,2.1,1.4c0.6,0.6,1.1,1.3,1.4,2.2c0.3,0.8,0.5,1.7,0.5,2.7s-0.2,1.9-0.5,2.7s-0.8,1.6-1.4,2.2
			c-0.6,0.6-1.3,1.1-2.1,1.4C123.4,155.5,122.4,155.7,121.5,155.7z M121.5,154.1c0.7,0,1.4-0.1,2-0.4c0.6-0.3,1.1-0.6,1.5-1.1
			s0.8-1,1-1.6s0.3-1.3,0.3-2s-0.1-1.4-0.3-2c-0.2-0.6-0.6-1.2-1-1.6c-0.4-0.5-0.9-0.8-1.5-1.1s-1.3-0.4-2-0.4s-1.4,0.1-2,0.4
			c-0.6,0.3-1.1,0.6-1.5,1.1s-0.8,1-1,1.6s-0.3,1.3-0.3,2s0.1,1.4,0.3,2s0.6,1.2,1,1.6c0.4,0.5,0.9,0.8,1.5,1.1
			C120,153.9,120.7,154.1,121.5,154.1z"/>
		<path class="st7" d="M130.8,142.3h4.6c0.8,0,1.5,0.1,2.1,0.3s1,0.5,1.3,0.9s0.5,0.7,0.7,1.2c0.1,0.4,0.2,0.9,0.2,1.3
			c0,0.4-0.1,0.8-0.2,1.2s-0.4,0.7-0.6,1c-0.3,0.3-0.6,0.6-1,0.8s-0.8,0.3-1.3,0.4l3.7,5.9h-2.2l-3.3-5.7h-2v5.7H131v-13
			L130.8,142.3L130.8,142.3z M132.6,148.1h2.3c0.3,0,0.7,0,1-0.1s0.6-0.2,0.9-0.3c0.3-0.1,0.5-0.4,0.6-0.6c0.2-0.3,0.2-0.6,0.2-1.1
			s-0.1-0.8-0.2-1.1c-0.2-0.3-0.4-0.5-0.6-0.6c-0.3-0.1-0.6-0.2-0.9-0.3c-0.3-0.1-0.7-0.1-1-0.1h-2.3V148.1z"/>
		<path class="st7" d="M142,142.3h1.8v13H142V142.3z"/>
		<path class="st7" d="M146.1,153.7l7.4-9.7h-7.2v-1.7h9.4v1.7l-7.4,9.7h7.5v1.7h-9.7V153.7z"/>
		<path class="st7" d="M162.2,142.3h1.6l5.6,13h-2.1l-1.3-3.2h-6.2l-1.3,3.2h-2.1L162.2,142.3z M165.3,150.6l-2.4-6l0,0l-2.5,6
			H165.3z"/>
		<path class="st7" d="M185.2,145.2c-0.4-0.5-0.8-0.8-1.4-1.1c-0.6-0.3-1.1-0.4-1.7-0.4c-0.7,0-1.4,0.1-2,0.4
			c-0.6,0.3-1.1,0.7-1.5,1.1c-0.4,0.5-0.8,1-1,1.7s-0.3,1.3-0.3,2.1c0,0.7,0.1,1.3,0.3,2c0.2,0.6,0.5,1.2,1,1.6
			c0.4,0.5,0.9,0.8,1.5,1.1s1.3,0.4,2,0.4s1.4-0.2,2-0.5s1-0.7,1.4-1.3l1.5,1.1c-0.1,0.1-0.3,0.3-0.5,0.6s-0.6,0.5-1,0.8
			s-0.9,0.5-1.5,0.7s-1.2,0.3-2,0.3c-1,0-2-0.2-2.8-0.6c-0.8-0.4-1.5-0.9-2.1-1.5s-1-1.4-1.3-2.2s-0.5-1.6-0.5-2.4
			c0-1,0.2-1.9,0.5-2.8c0.3-0.9,0.8-1.6,1.4-2.2c0.6-0.6,1.3-1.1,2.1-1.4c0.8-0.3,1.8-0.5,2.8-0.5c0.9,0,1.7,0.2,2.5,0.5
			s1.5,0.8,2,1.5L185.2,145.2z"/>
		<path class="st7" d="M195.1,155.7c-1,0-1.9-0.2-2.7-0.5s-1.5-0.8-2.1-1.4c-0.6-0.6-1.1-1.3-1.4-2.2c-0.3-0.8-0.5-1.7-0.5-2.7
			s0.2-1.9,0.5-2.7s0.8-1.6,1.4-2.2c0.6-0.6,1.3-1.1,2.1-1.4c0.8-0.3,1.7-0.5,2.7-0.5s1.9,0.2,2.7,0.5c0.8,0.4,1.5,0.8,2.1,1.4
			c0.6,0.6,1.1,1.3,1.4,2.2c0.3,0.8,0.5,1.7,0.5,2.7s-0.2,1.9-0.5,2.7s-0.8,1.6-1.4,2.2c-0.6,0.6-1.3,1.1-2.1,1.4
			C197,155.5,196.1,155.7,195.1,155.7z M195.1,154.1c0.7,0,1.4-0.1,2-0.4c0.6-0.3,1.1-0.6,1.5-1.1s0.8-1,1-1.6s0.3-1.3,0.3-2
			s-0.1-1.4-0.3-2s-0.6-1.2-1-1.6c-0.4-0.5-0.9-0.8-1.5-1.1s-1.3-0.4-2-0.4s-1.4,0.1-2,0.4c-0.6,0.3-1.1,0.6-1.5,1.1s-0.8,1-1,1.6
			s-0.3,1.3-0.3,2s0.1,1.4,0.3,2s0.6,1.2,1,1.6c0.4,0.5,0.9,0.8,1.5,1.1C193.7,153.9,194.4,154.1,195.1,154.1z"/>
		<path class="st7" d="M204.4,142.3h2.3l7.2,10.7l0,0v-10.7h1.8v13h-2.2l-7.3-10.7l0,0v10.7h-1.8V142.3z"/>
		<path class="st7" d="M226.9,144h-4.2v-1.7h10.2v1.7h-4.2v11.4h-1.8V144z"/>
		<path class="st7" d="M236.3,142.3v8c0,0.4,0.1,0.8,0.2,1.3c0.1,0.4,0.3,0.8,0.6,1.2s0.6,0.7,1,0.9s0.9,0.3,1.5,0.3
			s1.1-0.1,1.5-0.3s0.8-0.5,1-0.9s0.4-0.8,0.6-1.2c0.1-0.4,0.2-0.9,0.2-1.3v-8h1.8v8.3c0,0.8-0.1,1.5-0.4,2.1
			c-0.3,0.6-0.6,1.2-1.1,1.6c-0.5,0.5-1,0.8-1.6,1s-1.3,0.4-2,0.4s-1.4-0.1-2-0.4c-0.6-0.2-1.1-0.6-1.6-1c-0.5-0.5-0.8-1-1.1-1.6
			s-0.4-1.3-0.4-2.1v-8.3H236.3z"/>
		<path class="st7" d="M252.9,142.3h2.3l7.2,10.7l0,0v-10.7h1.8v13H262l-7.3-10.7l0,0v10.7h-1.8V142.3L252.9,142.3z"/>
		<path class="st7" d="M267.5,142.3h1.8v13h-1.8V142.3z"/>
		<path class="st7" d="M272.6,142.3h4.6c0.8,0,1.5,0.1,2.1,0.3s1,0.5,1.3,0.9s0.5,0.7,0.7,1.2c0.1,0.4,0.2,0.9,0.2,1.3
			c0,0.4-0.1,0.8-0.2,1.3c-0.1,0.4-0.3,0.8-0.7,1.2c-0.3,0.3-0.7,0.6-1.3,0.9s-1.2,0.3-2.1,0.3h-2.8v5.7h-1.8L272.6,142.3
			L272.6,142.3z M274.4,148.1h2.3c0.3,0,0.7,0,1-0.1s0.6-0.2,0.9-0.3s0.5-0.4,0.6-0.6c0.2-0.3,0.2-0.6,0.2-1.1s-0.1-0.8-0.2-1.1
			c-0.2-0.3-0.4-0.5-0.6-0.6c-0.3-0.1-0.6-0.2-0.9-0.3s-0.7-0.1-1-0.1h-2.3V148.1z"/>
	</g>
	<text transform="matrix(1 0 0 1 80.9434 194.0181)" class="st8 st9 st10">Genera</text>
	<text transform="matrix(1 0 0 1 131.1152 194.0181)" class="st8 st9 st10">r</text>
	<g>
		<path class="st8" d="M150.7,192.3c-0.2,0.3-0.4,0.5-0.7,0.8s-0.6,0.5-0.9,0.6c-0.3,0.2-0.7,0.3-1.1,0.4s-0.8,0.2-1.3,0.2
			c-0.8,0-1.5-0.1-2.2-0.4c-0.7-0.3-1.3-0.7-1.8-1.2s-0.9-1.1-1.2-1.8s-0.4-1.4-0.4-2.3s0.1-1.6,0.4-2.3s0.7-1.3,1.2-1.8
			s1.1-0.9,1.8-1.2s1.4-0.4,2.2-0.4c0.7,0,1.3,0.1,2,0.4c0.7,0.3,1.2,0.7,1.7,1.3l-1,0.7c-0.1-0.2-0.3-0.3-0.5-0.5s-0.4-0.3-0.7-0.5
			c-0.2-0.1-0.5-0.2-0.8-0.3s-0.6-0.1-0.9-0.1c-0.7,0-1.3,0.1-1.9,0.4c-0.5,0.3-1,0.6-1.4,1s-0.7,0.9-0.9,1.5s-0.3,1.2-0.3,1.8
			s0.1,1.2,0.3,1.8s0.5,1.1,0.9,1.5s0.8,0.8,1.4,1c0.5,0.3,1.2,0.4,1.9,0.4c0.3,0,0.6,0,0.8-0.1c0.3-0.1,0.6-0.1,0.8-0.3
			c0.3-0.1,0.5-0.3,0.8-0.5s0.5-0.5,0.7-0.8L150.7,192.3z"/>
		<path class="st8" d="M159.4,190.5c0,0.5-0.1,1-0.3,1.5s-0.4,0.9-0.8,1.2c-0.3,0.3-0.7,0.6-1.2,0.8s-1,0.3-1.5,0.3
			s-1.1-0.1-1.5-0.3c-0.5-0.2-0.9-0.4-1.2-0.8c-0.3-0.3-0.6-0.7-0.8-1.2s-0.3-1-0.3-1.5s0.1-1,0.3-1.5s0.4-0.9,0.8-1.2
			c0.3-0.3,0.7-0.6,1.2-0.8s1-0.3,1.5-0.3c0.6,0,1.1,0.1,1.5,0.3c0.5,0.2,0.9,0.4,1.2,0.8c0.3,0.3,0.6,0.7,0.8,1.2
			S159.4,189.9,159.4,190.5z M158.3,190.5c0-0.4-0.1-0.8-0.2-1.1c-0.1-0.3-0.3-0.6-0.5-0.9c-0.2-0.3-0.5-0.5-0.8-0.6
			s-0.7-0.2-1.1-0.2s-0.8,0.1-1.1,0.2s-0.6,0.3-0.8,0.6s-0.4,0.6-0.5,0.9c-0.1,0.3-0.2,0.7-0.2,1.1c0,0.4,0.1,0.8,0.2,1.1
			c0.1,0.3,0.3,0.6,0.5,0.9c0.2,0.3,0.5,0.5,0.8,0.6s0.7,0.2,1.1,0.2s0.8-0.1,1.1-0.2c0.3-0.1,0.6-0.3,0.8-0.6s0.4-0.6,0.5-0.9
			C158.2,191.2,158.3,190.9,158.3,190.5z M155.6,185.4h-0.9l1.5-2.2h1.4L155.6,185.4z"/>
		<path class="st8" d="M168.3,194h-1v-1.2l0,0c-0.2,0.2-0.4,0.5-0.6,0.6c-0.2,0.2-0.5,0.3-0.7,0.4c-0.2,0.1-0.5,0.2-0.8,0.2
			s-0.5,0.1-0.7,0.1c-0.6,0-1.1-0.1-1.5-0.3c-0.5-0.2-0.9-0.4-1.2-0.8c-0.3-0.3-0.6-0.7-0.8-1.2s-0.3-1-0.3-1.5s0.1-1,0.3-1.5
			s0.4-0.9,0.8-1.2c0.3-0.3,0.7-0.6,1.2-0.8s1-0.3,1.5-0.3c0.2,0,0.5,0,0.7,0.1s0.5,0.1,0.8,0.2c0.2,0.1,0.5,0.3,0.7,0.4
			c0.2,0.2,0.4,0.4,0.6,0.6l0,0v-5.6h1V194z M161.8,190.5c0,0.4,0.1,0.8,0.2,1.1c0.1,0.3,0.3,0.6,0.5,0.9c0.2,0.3,0.5,0.5,0.8,0.6
			s0.7,0.2,1.1,0.2c0.4,0,0.8-0.1,1.1-0.2c0.4-0.1,0.7-0.3,0.9-0.6c0.3-0.3,0.5-0.6,0.6-0.9c0.1-0.3,0.2-0.7,0.2-1.1
			c0-0.4-0.1-0.8-0.2-1.1c-0.1-0.3-0.3-0.6-0.6-0.9c-0.3-0.3-0.6-0.5-0.9-0.6c-0.3-0.1-0.7-0.2-1.1-0.2c-0.4,0-0.8,0.1-1.1,0.2
			c-0.3,0.1-0.6,0.3-0.8,0.6s-0.4,0.6-0.5,0.9C161.9,189.7,161.8,190.1,161.8,190.5z"/>
		<path class="st8" d="M172,184.2c0,0.2-0.1,0.4-0.2,0.5c-0.2,0.1-0.3,0.2-0.5,0.2s-0.4-0.1-0.5-0.2c-0.2-0.1-0.2-0.3-0.2-0.5
			s0.1-0.4,0.2-0.5c0.2-0.1,0.3-0.2,0.5-0.2s0.3,0.1,0.5,0.2C171.9,183.8,172,183.9,172,184.2z M171.8,194h-1v-7.1h1V194z"/>
		<path class="st8" d="M174.7,195.4c0.3,0.4,0.7,0.7,1.1,1s1,0.4,1.6,0.4c0.5,0,0.9-0.1,1.3-0.2c0.4-0.1,0.6-0.3,0.9-0.6
			c0.2-0.3,0.4-0.6,0.5-0.9c0.1-0.3,0.1-0.7,0.1-1.1v-1.3l0,0c-0.3,0.5-0.7,0.8-1.2,1s-1,0.3-1.5,0.3s-1-0.1-1.5-0.3
			s-0.8-0.4-1.2-0.8c-0.3-0.3-0.6-0.7-0.8-1.1c-0.2-0.4-0.3-0.9-0.3-1.4s0.1-1,0.3-1.4s0.4-0.8,0.8-1.2c0.3-0.3,0.7-0.6,1.1-0.8
			c0.4-0.2,0.9-0.3,1.5-0.3c0.2,0,0.4,0,0.7,0.1s0.5,0.1,0.7,0.2s0.5,0.2,0.7,0.4s0.5,0.4,0.7,0.7l0,0v-1.2h1v7.1
			c0,0.4,0,0.8-0.1,1.2s-0.3,0.8-0.6,1.2s-0.7,0.7-1.2,0.9s-1.1,0.4-1.9,0.4c-0.7,0-1.3-0.1-1.9-0.4c-0.6-0.2-1.1-0.6-1.5-1.1
			L174.7,195.4z M174.9,190.4c0,0.4,0.1,0.7,0.2,1.1c0.1,0.3,0.3,0.6,0.6,0.9s0.5,0.4,0.8,0.6c0.3,0.1,0.7,0.2,1,0.2
			c0.4,0,0.7-0.1,1-0.2c0.3-0.1,0.6-0.3,0.9-0.6c0.3-0.2,0.4-0.5,0.6-0.9c0.1-0.3,0.2-0.7,0.2-1.1c0-0.4-0.1-0.7-0.2-1.1
			c-0.1-0.3-0.3-0.6-0.5-0.9s-0.5-0.4-0.9-0.6c-0.3-0.1-0.7-0.2-1.1-0.2c-0.4,0-0.7,0.1-1,0.2s-0.6,0.3-0.8,0.6s-0.4,0.5-0.6,0.9
			C175,189.6,174.9,190,174.9,190.4z"/>
		<path class="st8" d="M190.7,190.5c0,0.5-0.1,1-0.3,1.5s-0.4,0.9-0.8,1.2c-0.3,0.3-0.7,0.6-1.2,0.8s-1,0.3-1.5,0.3
			s-1.1-0.1-1.5-0.3c-0.5-0.2-0.9-0.4-1.2-0.8c-0.3-0.3-0.6-0.7-0.8-1.2s-0.3-1-0.3-1.5s0.1-1,0.3-1.5s0.4-0.9,0.8-1.2
			c0.3-0.3,0.7-0.6,1.2-0.8s1-0.3,1.5-0.3c0.6,0,1.1,0.1,1.5,0.3c0.5,0.2,0.9,0.4,1.2,0.8c0.3,0.3,0.6,0.7,0.8,1.2
			S190.7,189.9,190.7,190.5z M189.6,190.5c0-0.4-0.1-0.8-0.2-1.1c-0.1-0.3-0.3-0.6-0.5-0.9c-0.2-0.3-0.5-0.5-0.8-0.6
			s-0.7-0.2-1.1-0.2s-0.8,0.1-1.1,0.2s-0.6,0.3-0.8,0.6s-0.4,0.6-0.5,0.9c-0.1,0.3-0.2,0.7-0.2,1.1c0,0.4,0.1,0.8,0.2,1.1
			c0.1,0.3,0.3,0.6,0.5,0.9c0.2,0.3,0.5,0.5,0.8,0.6s0.7,0.2,1.1,0.2s0.8-0.1,1.1-0.2c0.3-0.1,0.6-0.3,0.8-0.6s0.4-0.6,0.5-0.9
			C189.5,191.2,189.6,190.9,189.6,190.5z"/>
		<path class="st8" d="M196.7,186.9h1v1.2l0,0c0.2-0.2,0.4-0.5,0.6-0.6c0.2-0.2,0.5-0.3,0.7-0.4c0.2-0.1,0.5-0.2,0.8-0.2
			s0.5-0.1,0.7-0.1c0.6,0,1.1,0.1,1.5,0.3c0.5,0.2,0.9,0.4,1.2,0.8c0.3,0.3,0.6,0.7,0.8,1.2s0.3,1,0.3,1.5s-0.1,1-0.3,1.5
			s-0.4,0.9-0.8,1.2c-0.3,0.3-0.7,0.6-1.2,0.8s-1,0.3-1.5,0.3c-0.2,0-0.5,0-0.7-0.1s-0.5-0.1-0.8-0.2c-0.2-0.1-0.5-0.3-0.7-0.4
			c-0.2-0.2-0.4-0.4-0.6-0.6l0,0v5.6h-1V186.9z M203.2,190.5c0-0.4-0.1-0.8-0.2-1.1c-0.1-0.3-0.3-0.6-0.5-0.9s-0.5-0.5-0.8-0.6
			s-0.7-0.2-1.1-0.2c-0.4,0-0.8,0.1-1.1,0.2s-0.6,0.3-0.9,0.6c-0.3,0.3-0.5,0.6-0.6,0.9c-0.1,0.3-0.2,0.7-0.2,1.1
			c0,0.4,0.1,0.8,0.2,1.1c0.1,0.3,0.3,0.6,0.6,0.9c0.3,0.3,0.6,0.5,0.9,0.6c0.3,0.1,0.7,0.2,1.1,0.2c0.4,0,0.8-0.1,1.1-0.2
			c0.3-0.1,0.6-0.3,0.8-0.6s0.4-0.6,0.5-0.9C203.2,191.2,203.2,190.9,203.2,190.5z"/>
		<path class="st8" d="M213.2,190.5c0,0.5-0.1,1-0.3,1.5s-0.4,0.9-0.8,1.2c-0.3,0.3-0.7,0.6-1.2,0.8s-1,0.3-1.5,0.3
			s-1.1-0.1-1.5-0.3c-0.5-0.2-0.9-0.4-1.2-0.8c-0.3-0.3-0.6-0.7-0.8-1.2s-0.3-1-0.3-1.5s0.1-1,0.3-1.5s0.4-0.9,0.8-1.2
			c0.3-0.3,0.7-0.6,1.2-0.8s1-0.3,1.5-0.3c0.6,0,1.1,0.1,1.5,0.3c0.5,0.2,0.9,0.4,1.2,0.8c0.3,0.3,0.6,0.7,0.8,1.2
			S213.2,189.9,213.2,190.5z M212.1,190.5c0-0.4-0.1-0.8-0.2-1.1c-0.1-0.3-0.3-0.6-0.5-0.9c-0.2-0.3-0.5-0.5-0.8-0.6
			s-0.7-0.2-1.1-0.2s-0.8,0.1-1.1,0.2s-0.6,0.3-0.8,0.6s-0.4,0.6-0.5,0.9c-0.1,0.3-0.2,0.7-0.2,1.1c0,0.4,0.1,0.8,0.2,1.1
			c0.1,0.3,0.3,0.6,0.5,0.9c0.2,0.3,0.5,0.5,0.8,0.6s0.7,0.2,1.1,0.2s0.8-0.1,1.1-0.2c0.3-0.1,0.6-0.3,0.8-0.6s0.4-0.6,0.5-0.9
			C212.1,191.2,212.1,190.9,212.1,190.5z"/>
		<path class="st8" d="M215.2,189.1c0-0.3,0-0.6,0-1c0-0.3,0-0.7,0-1.3h1v1.3l0,0c0.1-0.2,0.2-0.4,0.3-0.6c0.1-0.2,0.3-0.3,0.5-0.5
			s0.4-0.3,0.7-0.3c0.2-0.1,0.5-0.1,0.8-0.1s0.5,0,0.7,0.1l-0.2,1c-0.1-0.1-0.3-0.1-0.6-0.1c-0.4,0-0.7,0.1-1,0.2
			c-0.3,0.1-0.5,0.3-0.7,0.6c-0.2,0.2-0.3,0.5-0.4,0.7c-0.1,0.3-0.1,0.5-0.1,0.8v4h-1V189.1z"/>
		<path class="st8" d="M227.1,189c-0.3-0.1-0.7-0.2-1-0.4c-0.4-0.2-0.7-0.4-0.9-0.6c-0.3-0.2-0.5-0.5-0.7-0.9s-0.3-0.7-0.3-1.2
			c0-0.4,0.1-0.8,0.3-1.2s0.4-0.7,0.7-0.9c0.3-0.3,0.6-0.5,0.9-0.6c0.3-0.1,0.7-0.2,1.1-0.3V182h0.7v1c0.4,0,0.7,0,1,0.1
			s0.5,0.2,0.8,0.3c0.2,0.1,0.4,0.3,0.6,0.4c0.2,0.2,0.3,0.3,0.5,0.5l-0.9,0.7c-0.2-0.4-0.5-0.6-0.9-0.8s-0.7-0.2-1.1-0.2v4.1
			c0.4,0.1,0.7,0.3,1.1,0.4s0.7,0.4,1,0.6s0.5,0.5,0.7,0.9s0.3,0.8,0.3,1.3c0,0.4-0.1,0.8-0.2,1.2c-0.2,0.4-0.4,0.7-0.7,0.9
			c-0.3,0.3-0.6,0.5-1,0.6c-0.4,0.2-0.8,0.2-1.2,0.3v1h-0.7v-1c-0.7,0-1.3-0.2-1.9-0.5c-0.6-0.3-1-0.7-1.3-1.1l0.9-0.7
			c0.2,0.2,0.3,0.4,0.5,0.6s0.4,0.3,0.6,0.4c0.2,0.1,0.4,0.2,0.6,0.3c0.2,0.1,0.4,0.1,0.5,0.1L227.1,189L227.1,189z M227.1,184
			c-0.3,0-0.5,0.1-0.7,0.2c-0.2,0.1-0.4,0.2-0.6,0.4c-0.2,0.2-0.3,0.4-0.4,0.6c-0.1,0.2-0.1,0.5-0.1,0.7s0,0.5,0.1,0.7
			s0.2,0.4,0.4,0.5s0.4,0.3,0.6,0.4c0.2,0.1,0.5,0.2,0.7,0.3V184z M227.8,193.3c0.2,0,0.4,0,0.6-0.1c0.2-0.1,0.4-0.2,0.6-0.3
			c0.2-0.2,0.4-0.4,0.5-0.6c0.1-0.2,0.2-0.6,0.2-0.9c0-0.5-0.2-0.9-0.6-1.3c-0.4-0.3-0.9-0.6-1.4-0.8L227.8,193.3L227.8,193.3z"/>
		<path class="st8" d="M237,194h-1.1v-9.4l-1.9,1.7l-0.7-0.8l2.7-2.3h1V194z"/>
		<path class="st8" d="M244.4,183.1c0.8,0,1.4,0.2,1.9,0.5c0.5,0.4,0.8,0.8,1.1,1.4s0.4,1.1,0.5,1.8s0.1,1.3,0.1,1.9s0,1.2-0.1,1.9
			s-0.3,1.3-0.5,1.8c-0.3,0.5-0.6,1-1.1,1.4s-1.1,0.5-1.9,0.5c-0.8,0-1.4-0.2-1.9-0.5s-0.8-0.8-1.1-1.4c-0.3-0.5-0.4-1.1-0.5-1.8
			s-0.1-1.3-0.1-1.9s0-1.2,0.1-1.9s0.3-1.3,0.5-1.8s0.6-1,1.1-1.4C243,183.2,243.6,183.1,244.4,183.1z M244.4,184.1
			c-0.6,0-1.1,0.2-1.4,0.5c-0.3,0.3-0.6,0.7-0.8,1.2s-0.3,1-0.3,1.5s-0.1,1-0.1,1.4s0,0.9,0.1,1.4c0,0.5,0.2,1,0.3,1.5
			c0.2,0.5,0.4,0.9,0.8,1.2s0.8,0.5,1.4,0.5c0.6,0,1.1-0.2,1.4-0.5s0.6-0.7,0.8-1.2s0.3-1,0.3-1.5s0.1-1,0.1-1.4s0-0.9-0.1-1.4
			c0-0.5-0.2-1-0.3-1.5c-0.2-0.5-0.4-0.9-0.8-1.2C245.4,184.2,245,184.1,244.4,184.1z"/>
		<path class="st8" d="M252.9,183.1c0.8,0,1.4,0.2,1.9,0.5c0.5,0.4,0.8,0.8,1.1,1.4c0.3,0.6,0.4,1.1,0.5,1.8s0.1,1.3,0.1,1.9
			s0,1.2-0.1,1.9s-0.3,1.3-0.5,1.8c-0.3,0.5-0.6,1-1.1,1.4s-1.1,0.5-1.9,0.5c-0.8,0-1.4-0.2-1.9-0.5s-0.8-0.8-1.1-1.4
			c-0.3-0.5-0.4-1.1-0.5-1.8s-0.1-1.3-0.1-1.9s0-1.2,0.1-1.9s0.3-1.3,0.5-1.8s0.6-1,1.1-1.4C251.5,183.2,252.1,183.1,252.9,183.1z
			 M252.9,184.1c-0.6,0-1.1,0.2-1.4,0.5c-0.3,0.3-0.6,0.7-0.8,1.2s-0.3,1-0.3,1.5s-0.1,1-0.1,1.4s0,0.9,0.1,1.4c0,0.5,0.2,1,0.3,1.5
			c0.2,0.5,0.4,0.9,0.8,1.2s0.8,0.5,1.4,0.5c0.6,0,1.1-0.2,1.4-0.5s0.6-0.7,0.8-1.2s0.3-1,0.3-1.5s0.1-1,0.1-1.4s0-0.9-0.1-1.4
			c0-0.5-0.2-1-0.3-1.5c-0.2-0.5-0.4-0.9-0.8-1.2C253.9,184.2,253.4,184.1,252.9,184.1z"/>
		<path class="st8" d="M260,193.3c0,0.2-0.1,0.4-0.2,0.6s-0.4,0.3-0.6,0.3s-0.4-0.1-0.6-0.3s-0.2-0.4-0.2-0.6s0.1-0.4,0.2-0.6
			c0.2-0.2,0.4-0.3,0.6-0.3s0.4,0.1,0.6,0.3C259.9,192.9,260,193.1,260,193.3z"/>
		<path class="st8" d="M265.5,183.1c0.8,0,1.4,0.2,1.9,0.5c0.5,0.4,0.8,0.8,1.1,1.4s0.4,1.1,0.5,1.8s0.1,1.3,0.1,1.9s0,1.2-0.1,1.9
			s-0.3,1.3-0.5,1.8c-0.3,0.5-0.6,1-1.1,1.4s-1.1,0.5-1.9,0.5s-1.4-0.2-1.9-0.5s-0.8-0.8-1.1-1.4c-0.3-0.5-0.4-1.1-0.5-1.8
			s-0.1-1.3-0.1-1.9s0-1.2,0.1-1.9s0.3-1.3,0.5-1.8s0.6-1,1.1-1.4C264.1,183.2,264.8,183.1,265.5,183.1z M265.5,184.1
			c-0.6,0-1.1,0.2-1.4,0.5s-0.6,0.7-0.8,1.2c-0.2,0.5-0.3,1-0.3,1.5s-0.1,1-0.1,1.4s0,0.9,0.1,1.4c0,0.5,0.2,1,0.3,1.5
			c0.2,0.5,0.4,0.9,0.8,1.2s0.8,0.5,1.4,0.5s1.1-0.2,1.4-0.5s0.6-0.7,0.8-1.2c0.2-0.5,0.3-1,0.3-1.5s0.1-1,0.1-1.4s0-0.9-0.1-1.4
			c0-0.5-0.2-1-0.3-1.5c-0.2-0.5-0.4-0.9-0.8-1.2C266.6,184.2,266.1,184.1,265.5,184.1z"/>
		<path class="st8" d="M274,183.1c0.8,0,1.4,0.2,1.9,0.5c0.5,0.4,0.8,0.8,1.1,1.4s0.4,1.1,0.5,1.8s0.1,1.3,0.1,1.9s0,1.2-0.1,1.9
			s-0.3,1.3-0.5,1.8c-0.3,0.5-0.6,1-1.1,1.4s-1.1,0.5-1.9,0.5s-1.4-0.2-1.9-0.5s-0.8-0.8-1.1-1.4c-0.3-0.5-0.4-1.1-0.5-1.8
			s-0.1-1.3-0.1-1.9s0-1.2,0.1-1.9s0.3-1.3,0.5-1.8s0.6-1,1.1-1.4C272.6,183.2,273.2,183.1,274,183.1z M274,184.1
			c-0.6,0-1.1,0.2-1.4,0.5s-0.6,0.7-0.8,1.2c-0.2,0.5-0.3,1-0.3,1.5s-0.1,1-0.1,1.4s0,0.9,0.1,1.4c0,0.5,0.2,1,0.3,1.5
			c0.2,0.5,0.4,0.9,0.8,1.2s0.8,0.5,1.4,0.5s1.1-0.2,1.4-0.5s0.6-0.7,0.8-1.2c0.2-0.5,0.3-1,0.3-1.5s0.1-1,0.1-1.4s0-0.9-0.1-1.4
			c0-0.5-0.2-1-0.3-1.5c-0.2-0.5-0.4-0.9-0.8-1.2C275.1,184.2,274.6,184.1,274,184.1z"/>
	</g>
	<path class="st0" d="M91.3,239.6c0,8.7-7,15.7-15.7,15.7s-15.7-7-15.7-15.7s7-15.7,15.7-15.7C84.3,223.9,91.3,230.9,91.3,239.6"/>
	<path class="st11" d="M91.3,239.6c0,8.7-7,15.7-15.7,15.7s-15.7-7-15.7-15.7s7-15.7,15.7-15.7C84.3,223.9,91.3,230.9,91.3,239.6z"
		/>
	<path class="st0" d="M133.3,239.6c0,8.7-7,15.7-15.7,15.7s-15.7-7-15.7-15.7s7-15.7,15.7-15.7C126.3,223.9,133.3,230.9,133.3,239.6
		"/>
	<path class="st11" d="M133.3,239.6c0,8.7-7,15.7-15.7,15.7s-15.7-7-15.7-15.7s7-15.7,15.7-15.7
		C126.3,223.9,133.3,230.9,133.3,239.6z"/>
	<path class="st0" d="M173.9,239.6c0,8.7-7,15.7-15.7,15.7s-15.7-7-15.7-15.7s7-15.7,15.7-15.7C166.8,223.9,173.9,230.9,173.9,239.6
		"/>
	<path class="st11" d="M173.9,239.6c0,8.7-7,15.7-15.7,15.7s-15.7-7-15.7-15.7s7-15.7,15.7-15.7
		C166.8,223.9,173.9,230.9,173.9,239.6z"/>
	<path class="st0" d="M215.8,239.6c0,8.7-7,15.7-15.7,15.7s-15.7-7-15.7-15.7s7-15.7,15.7-15.7C208.7,223.9,215.8,230.9,215.8,239.6
		"/>
	<path class="st11" d="M215.8,239.6c0,8.7-7,15.7-15.7,15.7s-15.7-7-15.7-15.7s7-15.7,15.7-15.7
		C208.7,223.9,215.8,230.9,215.8,239.6z"/>
	<path class="st0" d="M257.8,239.6c0,8.7-7,15.7-15.7,15.7s-15.7-7-15.7-15.7s7-15.7,15.7-15.7C250.8,223.9,257.8,230.9,257.8,239.6
		"/>
	<path class="st11" d="M257.8,239.6c0,8.7-7,15.7-15.7,15.7s-15.7-7-15.7-15.7s7-15.7,15.7-15.7
		C250.8,223.9,257.8,230.9,257.8,239.6z"/>
	<path class="st0" d="M299.3,239.6c0,8.7-7,15.7-15.7,15.7s-15.7-7-15.7-15.7s7-15.7,15.7-15.7C292.3,223.9,299.3,230.9,299.3,239.6
		"/>
	<path class="st11" d="M299.3,239.6c0,8.7-7,15.7-15.7,15.7s-15.7-7-15.7-15.7s7-15.7,15.7-15.7
		C292.3,223.9,299.3,230.9,299.3,239.6z"/>
	<path class="st7" d="M84.4,239.6c0,4.9-3.9,8.8-8.8,8.8s-8.8-3.9-8.8-8.8c0-4.9,3.9-8.8,8.8-8.8S84.4,234.7,84.4,239.6"/>
</g>
<rect x="115" y="410.4" class="st12" width="0.5" height="201.3"/>
<rect x="235.6" y="410.4" class="st12" width="0.5" height="201.3"/>
<rect x="0.8" y="460.7" class="st12" width="349.4" height="0.5"/>
<rect x="0.8" y="511.1" class="st12" width="349.4" height="0.5"/>
<rect x="0.8" y="561.4" class="st12" width="349.4" height="0.5"/>
<rect x="236.1" y="561.8" class="st13" width="114.1" height="49.9"/>
<polygon points="295.7,588.7 298.5,591.5 299.3,590.7 296.5,587.9 299.3,585.2 298.5,584.4 295.7,587.2 293,584.4 292.2,585.2 
	295,587.9 292.2,590.7 293,591.5 "/>
<path d="M300.4,581.4c1.3,0,2.4,1,2.4,2.3v8.4c0,1.3-1.1,2.3-2.4,2.3h-8.8c-0.6,0-1.3-0.3-1.7-0.7l-5.5-5.5l0,0l0,0
	c-0.1-0.1-0.1-0.2-0.1-0.3c0-0.1,0-0.2,0.1-0.3l0,0l0,0l5.5-5.5c0.4-0.5,1.1-0.7,1.7-0.7H300.4 M300.4,580h-8.4c-1,0-2,0.4-2.7,1.1
	l-5.9,5.5c-0.7,0.7-0.7,1.9,0,2.6l5.9,5.5c0.7,0.7,1.7,1.1,2.7,1.1h8.4c2.1,0,3.8-1.7,3.8-3.7v-8.4C304.1,581.7,302.4,580,300.4,580
	"/>
<rect x="115.4" y="561.8" class="st0" width="120.2" height="49.9"/>
<g>
	<path d="M181.3,587.1c0,5.8-2.1,8.9-5.9,8.9c-3.3,0-5.6-3.1-5.6-8.7c0-5.7,2.5-8.8,5.9-8.8C179.3,578.5,181.3,581.7,181.3,587.1z
		 M172.1,587.3c0,4.4,1.4,6.9,3.4,6.9c2.3,0,3.5-2.7,3.5-7.1c0-4.2-1.1-6.9-3.4-6.9C173.5,580.3,172.1,582.7,172.1,587.3z"/>
</g>
<rect x="0.8" y="561.8" class="st13" width="114.1" height="49.9"/>
<rect x="236.1" y="511.5" class="st0" width="114.1" height="49.9"/>
<g>
	<path d="M283.8,552.9L282,546h0.9l0.8,3.5c0.2,0.9,0.4,1.7,0.5,2.4h0c0.1-0.7,0.3-1.5,0.6-2.4l0.9-3.5h0.9l0.8,3.5
		c0.2,0.8,0.4,1.6,0.5,2.4h0c0.1-0.8,0.3-1.5,0.6-2.4l0.9-3.5h0.9l-2,6.9h-0.9l-0.9-3.6c-0.2-0.9-0.4-1.6-0.5-2.3h0
		c-0.1,0.7-0.3,1.4-0.5,2.3l-1,3.6H283.8z"/>
	<path d="M296.3,552.9l-0.9-1.5c-0.4-0.6-0.6-1-0.8-1.4h0c-0.2,0.4-0.4,0.8-0.7,1.4l-0.8,1.5h-1l2.1-3.5l-2-3.4h1l0.9,1.6
		c0.3,0.5,0.5,0.8,0.6,1.2h0c0.2-0.4,0.4-0.7,0.6-1.2l0.9-1.6h1l-2.1,3.4l2.2,3.6H296.3z"/>
	<path d="M301.2,552.9v-2.9l-2.2-4h1l1,1.9c0.3,0.5,0.5,0.9,0.7,1.4h0c0.2-0.5,0.4-0.9,0.7-1.4l1-1.9h1l-2.3,4v2.9H301.2z"/>
	<path d="M305.9,552.4l3.8-5.6v0h-3.5V546h4.7v0.5l-3.8,5.6v0h3.9v0.7h-5V552.4z"/>
</g>
<g>
	<path d="M291.1,536.7c0.5,0.1,1.1,0,1.9-0.1c1.3-0.2,2.6-0.7,3.5-1.6c1.1-1,1.9-2.5,2.2-4.5h-0.1c-0.9,1.1-2.3,1.8-4,1.8
		c-3.1,0-5-2.3-5-5.2c0-3.2,2.3-6,5.8-6s5.6,2.8,5.6,7.1c0,3.7-1.3,6.3-2.9,8c-1.3,1.3-3.1,2.1-4.9,2.3c-0.8,0.1-1.6,0.2-2.1,0.1
		V536.7z M291.9,527c0,2.1,1.3,3.6,3.3,3.6c1.5,0,2.7-0.8,3.3-1.8c0.1-0.2,0.2-0.5,0.2-0.8c0-2.9-1.1-5.1-3.5-5.1
		C293.3,522.9,291.9,524.6,291.9,527z"/>
</g>
<rect x="115.4" y="511.5" class="st0" width="120.2" height="49.9"/>
<g>
	<path d="M168.5,546.7h-2.1V546h5.1v0.8h-2.1v6.2h-0.9V546.7z"/>
	<path d="M174.5,546v4.1c0,1.5,0.7,2.2,1.6,2.2c1,0,1.7-0.7,1.7-2.2V546h0.9v4c0,2.1-1.1,3-2.6,3c-1.4,0-2.5-0.8-2.5-3V546H174.5z"
		/>
	<path d="M183.1,552.9l-2.3-6.9h1l1.1,3.4c0.3,0.9,0.6,1.8,0.7,2.6h0c0.2-0.8,0.5-1.7,0.8-2.6l1.2-3.4h1l-2.5,6.9H183.1z"/>
</g>
<g>
	<path d="M169.8,534.1c0-2.1,1.3-3.7,3.4-4.5l0-0.1c-1.9-0.9-2.7-2.3-2.7-3.8c0-2.7,2.3-4.5,5.2-4.5c3.3,0,4.9,2.1,4.9,4.2
		c0,1.4-0.7,3-2.8,4v0.1c2.1,0.8,3.4,2.3,3.4,4.4c0,2.9-2.5,4.9-5.8,4.9C172,538.7,169.8,536.5,169.8,534.1z M178.9,534
		c0-2.1-1.4-3.1-3.7-3.7c-2,0.6-3.1,1.9-3.1,3.5c-0.1,1.7,1.2,3.2,3.4,3.2C177.6,537,178.9,535.7,178.9,534z M172.6,525.5
		c0,1.7,1.3,2.6,3.2,3.1c1.5-0.5,2.6-1.5,2.6-3.1c0-1.4-0.8-2.8-2.9-2.8C173.7,522.8,172.6,524,172.6,525.5z"/>
</g>
<rect x="0.8" y="511.5" class="st0" width="114.1" height="49.9"/>
<g>
	<path d="M48.2,546c0.4-0.1,1-0.1,1.7-0.1c0.9,0,1.5,0.2,1.9,0.6c0.4,0.3,0.6,0.8,0.6,1.4c0,0.6-0.2,1.1-0.5,1.5
		c-0.5,0.5-1.2,0.8-2.1,0.8c-0.3,0-0.5,0-0.7-0.1v2.8h-0.9V546z M49.1,549.4c0.2,0.1,0.4,0.1,0.7,0.1c1.1,0,1.7-0.5,1.7-1.5
		c0-0.9-0.6-1.4-1.6-1.4c-0.4,0-0.7,0-0.8,0.1V549.4z"/>
	<path d="M60.7,553.9c-0.9-0.2-1.8-0.5-2.6-0.8c-0.1-0.1-0.3-0.1-0.4-0.1c-1.6-0.1-3-1.3-3-3.5c0-2.2,1.4-3.6,3.2-3.6
		c1.9,0,3.1,1.5,3.1,3.5c0,1.8-0.8,2.9-2,3.3v0c0.7,0.2,1.4,0.3,2,0.4L60.7,553.9z M59.9,549.4c0-1.4-0.7-2.8-2.2-2.8
		c-1.5,0-2.2,1.4-2.2,2.9c0,1.5,0.8,2.8,2.2,2.8C59.1,552.3,59.9,551,59.9,549.4z"/>
	<path d="M63.4,546.1c0.5-0.1,1.1-0.1,1.7-0.1c1,0,1.6,0.2,2,0.6c0.3,0.3,0.5,0.8,0.5,1.3c0,0.9-0.6,1.5-1.3,1.8v0
		c0.5,0.2,0.9,0.7,1,1.4c0.2,1,0.4,1.6,0.5,1.9H67c-0.1-0.2-0.3-0.8-0.5-1.7c-0.2-1-0.6-1.3-1.4-1.3h-0.8v3h-0.9V546.1z M64.3,549.2
		h0.9c1,0,1.6-0.5,1.6-1.3c0-0.9-0.6-1.3-1.6-1.3c-0.4,0-0.7,0-0.9,0.1V549.2z"/>
	<path d="M70.1,551.8c0.4,0.2,1,0.5,1.6,0.5c0.9,0,1.4-0.5,1.4-1.2c0-0.6-0.4-1-1.3-1.4c-1.1-0.4-1.8-1-1.8-2c0-1.1,0.9-1.9,2.2-1.9
		c0.7,0,1.2,0.2,1.5,0.3l-0.2,0.7c-0.2-0.1-0.7-0.3-1.3-0.3c-0.9,0-1.3,0.6-1.3,1c0,0.6,0.4,1,1.4,1.3c1.2,0.5,1.8,1,1.8,2
		c0,1.1-0.8,2-2.4,2c-0.7,0-1.4-0.2-1.8-0.4L70.1,551.8z"/>
</g>
<g>
	<path d="M65.7,521.5v1.5l-7.4,15.4H56l7.4-15v-0.1H55v-1.9H65.7z"/>
</g>
<rect x="236.1" y="461.2" class="st0" width="114.1" height="49.9"/>
<g>
	<path d="M290.3,499.5c-0.1-1-0.1-2.1-0.1-3h0c-0.2,0.8-0.5,1.7-0.9,2.6l-1.2,3.4h-0.7l-1.1-3.3c-0.3-1-0.6-1.9-0.8-2.7h0
		c0,0.9-0.1,2-0.1,3.1l-0.2,3h-0.9l0.5-6.9h1.1l1.2,3.3c0.3,0.9,0.5,1.6,0.7,2.3h0c0.2-0.7,0.4-1.5,0.7-2.3l1.2-3.3h1.1l0.4,6.9
		h-0.9L290.3,499.5z"/>
	<path d="M294.1,502.6v-6.9h1l2.2,3.5c0.5,0.8,0.9,1.5,1.2,2.2l0,0c-0.1-0.9-0.1-1.8-0.1-2.8v-2.9h0.8v6.9h-0.9l-2.2-3.5
		c-0.5-0.8-0.9-1.6-1.3-2.3l0,0c0.1,0.9,0.1,1.7,0.1,2.9v3H294.1z"/>
	<path d="M308.1,499c0,2.4-1.4,3.6-3.2,3.6c-1.8,0-3.1-1.4-3.1-3.5c0-2.2,1.4-3.6,3.2-3.6C306.8,495.5,308.1,497,308.1,499z
		 M302.7,499.1c0,1.5,0.8,2.8,2.2,2.8c1.4,0,2.2-1.3,2.2-2.9c0-1.4-0.7-2.8-2.2-2.8C303.4,496.3,302.7,497.6,302.7,499.1z"/>
</g>
<g>
	<path d="M299.4,472.7c-0.5,0-1.1,0-1.7,0.1c-3.6,0.6-5.5,3.2-5.9,6h0.1c0.8-1.1,2.2-2,4.1-2c3,0,5.1,2.2,5.1,5.5c0,3.1-2.1,6-5.6,6
		c-3.6,0-6-2.8-6-7.2c0-3.3,1.2-6,2.9-7.6c1.4-1.4,3.3-2.2,5.4-2.5c0.7-0.1,1.3-0.1,1.7-0.1V472.7z M298.8,482.5
		c0-2.4-1.4-3.9-3.5-3.9c-1.4,0-2.7,0.9-3.3,2.1c-0.2,0.3-0.3,0.6-0.3,1c0.1,2.8,1.3,4.9,3.7,4.9
		C297.5,486.6,298.8,484.9,298.8,482.5z"/>
</g>
<rect x="115.4" y="461.2" class="st0" width="120.2" height="49.9"/>
<g>
	<path d="M169.7,495.6h0.9v4.6c0,1.8-0.9,2.4-2.1,2.4c-0.3,0-0.7-0.1-1-0.2l0.1-0.7c0.2,0.1,0.5,0.1,0.7,0.1c0.8,0,1.3-0.4,1.3-1.7
		V495.6z"/>
	<path d="M173.4,495.6h0.9v3.3h0c0.2-0.3,0.4-0.5,0.5-0.7l2.1-2.6h1.1l-2.5,2.9l2.7,4h-1.1l-2.3-3.4l-0.7,0.8v2.6h-0.9V495.6z"/>
	<path d="M180.3,495.6h0.9v6.2h3v0.7h-3.8V495.6z"/>
</g>
<g>
	<path d="M179.7,473.1h-6.5l-0.7,4.4c0.4-0.1,0.8-0.1,1.4-0.1c1.3,0,2.6,0.3,3.7,0.9c1.3,0.8,2.4,2.2,2.4,4.4c0,3.3-2.6,5.8-6.3,5.8
		c-1.9,0-3.4-0.5-4.2-1l0.6-1.7c0.7,0.4,2.1,0.9,3.6,0.9c2.2,0,4-1.4,4-3.7c0-2.2-1.5-3.8-4.9-3.8c-1,0-1.7,0.1-2.3,0.2l1.1-8.1h8.1
		V473.1z"/>
</g>
<rect x="0.8" y="461.2" class="st0" width="114.1" height="49.9"/>
<g>
	<path d="M57.8,502.2c-0.4,0.1-1.2,0.4-2.1,0.4c-1,0-1.9-0.3-2.6-0.9c-0.6-0.6-1-1.5-1-2.6c0-2.1,1.4-3.6,3.7-3.6
		c0.8,0,1.4,0.2,1.7,0.3l-0.2,0.7c-0.4-0.2-0.8-0.3-1.5-0.3c-1.7,0-2.8,1-2.8,2.8c0,1.8,1.1,2.8,2.7,2.8c0.6,0,1-0.1,1.2-0.2v-2.1
		h-1.4v-0.7h2.3V502.2z"/>
	<path d="M61.4,495.6v2.9h3.3v-2.9h0.9v6.9h-0.9v-3.2h-3.3v3.2h-0.9v-6.9H61.4z"/>
	<path d="M69.4,495.6v6.9h-0.9v-6.9H69.4z"/>
</g>
<g>
	<path d="M61.3,488.1v-4.6h-7.9V482l7.6-10.8h2.5v10.5h2.4v1.8h-2.4v4.6H61.3z M61.3,481.7V476c0-0.9,0-1.8,0.1-2.7h-0.1
		c-0.5,1-0.9,1.7-1.4,2.5l-4.1,5.8v0.1H61.3z"/>
</g>
<rect x="236.1" y="410.4" class="st0" width="114.1" height="50.3"/>
<g>
	<path d="M287.3,445.4c0.5-0.1,1.2-0.1,1.9-0.1c1.3,0,2.2,0.3,2.8,0.9c0.6,0.6,1,1.4,1,2.5c0,1.1-0.3,2.1-1,2.7
		c-0.6,0.6-1.7,1-3.1,1c-0.6,0-1.2,0-1.6-0.1V445.4z M288.2,451.5c0.2,0,0.6,0.1,0.9,0.1c1.9,0,2.9-1.1,2.9-2.9
		c0-1.6-0.9-2.7-2.8-2.7c-0.5,0-0.8,0-1,0.1V451.5z"/>
	<path d="M299.1,449h-2.7v2.5h3v0.7h-3.9v-6.9h3.7v0.7h-2.8v2.2h2.7V449z"/>
	<path d="M301.8,445.3h3.7v0.7h-2.8v2.3h2.6v0.7h-2.6v3.1h-0.9V445.3z"/>
</g>
<g>
	<path d="M291.2,435.1c0.7,0.4,2.2,1.1,3.8,1.1c2.9,0,3.9-1.9,3.8-3.3c0-2.4-2.2-3.4-4.4-3.4h-1.3v-1.7h1.3c1.7,0,3.8-0.9,3.8-2.9
		c0-1.4-0.9-2.6-3-2.6c-1.4,0-2.7,0.6-3.4,1.1l-0.6-1.7c0.9-0.7,2.6-1.3,4.4-1.3c3.3,0,4.8,2,4.8,4c0,1.7-1,3.2-3.1,4v0.1
		c2.1,0.4,3.8,2,3.8,4.4c0,2.7-2.1,5.1-6.2,5.1c-1.9,0-3.6-0.6-4.4-1.1L291.2,435.1z"/>
</g>
<rect x="115.4" y="410.4" class="st0" width="120.2" height="50.3"/>
<g>
	<path d="M168.1,450.1l-0.7,2.2h-0.9l2.3-6.9h1.1l2.4,6.9h-1l-0.7-2.2H168.1z M170.4,449.4l-0.7-2c-0.2-0.5-0.3-0.9-0.4-1.3h0
		c-0.1,0.4-0.2,0.8-0.3,1.3l-0.7,2H170.4z"/>
	<path d="M174.5,445.4c0.4-0.1,1-0.1,1.6-0.1c0.9,0,1.5,0.2,1.9,0.5c0.4,0.3,0.6,0.7,0.6,1.2c0,0.7-0.4,1.3-1.2,1.5v0
		c0.7,0.2,1.4,0.7,1.4,1.7c0,0.6-0.2,1-0.6,1.4c-0.5,0.4-1.3,0.6-2.4,0.6c-0.6,0-1.1,0-1.4-0.1V445.4z M175.4,448.2h0.8
		c0.9,0,1.5-0.5,1.5-1.2c0-0.8-0.6-1.1-1.5-1.1c-0.4,0-0.6,0-0.8,0.1V448.2z M175.4,451.6c0.2,0,0.4,0,0.7,0c0.9,0,1.8-0.3,1.8-1.3
		c0-0.9-0.8-1.3-1.8-1.3h-0.7V451.6z"/>
	<path d="M186.2,452c-0.3,0.2-1,0.3-1.8,0.3c-1.9,0-3.4-1.2-3.4-3.5c0-2.2,1.5-3.6,3.6-3.6c0.9,0,1.4,0.2,1.6,0.3l-0.2,0.7
		c-0.3-0.2-0.8-0.3-1.4-0.3c-1.6,0-2.7,1-2.7,2.9c0,1.7,1,2.8,2.7,2.8c0.5,0,1.1-0.1,1.5-0.3L186.2,452z"/>
</g>
<g>
	<path d="M169.6,437.8v-1.4l1.8-1.7c4.3-4.1,6.3-6.3,6.3-8.9c0-1.7-0.8-3.3-3.4-3.3c-1.5,0-2.8,0.8-3.6,1.4l-0.7-1.6
		c1.2-1,2.8-1.7,4.8-1.7c3.7,0,5.2,2.5,5.2,4.9c0,3.1-2.3,5.7-5.8,9.1l-1.4,1.3v0.1h7.6v1.9H169.6z"/>
</g>
<rect x="0.8" y="410.4" class="st0" width="114.1" height="50.3"/>
<g>
	<path d="M60.2,423L60.2,423l-3,1.6l-0.4-1.7l3.7-2h2v17h-2.2V423z"/>
</g>
<rect x="0.8" y="376.5" class="st0" width="349.4" height="33.9"/>
<rect x="0.8" y="376.5" class="st14" width="349.4" height="33.9"/>
<g>
	<path d="M289.4,388.1h1.1l3.8,8.9h-1.4l-0.9-2.2h-4.2l-0.9,2.2h-1.4L289.4,388.1z M291.5,393.7l-1.7-4.1h0l-1.7,4.1H291.5z"/>
	<path d="M301.6,390c-0.3-0.3-0.6-0.6-1-0.8c-0.4-0.2-0.8-0.3-1.2-0.3c-0.5,0-1,0.1-1.4,0.3c-0.4,0.2-0.8,0.4-1,0.8
		c-0.3,0.3-0.5,0.7-0.7,1.2c-0.2,0.4-0.2,0.9-0.2,1.4c0,0.5,0.1,0.9,0.2,1.3c0.2,0.4,0.4,0.8,0.7,1.1c0.3,0.3,0.6,0.6,1,0.8
		c0.4,0.2,0.9,0.3,1.4,0.3c0.5,0,1-0.1,1.3-0.3c0.4-0.2,0.7-0.5,1-0.9l1,0.8c-0.1,0.1-0.2,0.2-0.4,0.4c-0.2,0.2-0.4,0.3-0.7,0.5
		c-0.3,0.2-0.6,0.3-1,0.5c-0.4,0.1-0.8,0.2-1.4,0.2c-0.7,0-1.3-0.1-1.9-0.4c-0.6-0.3-1.1-0.6-1.4-1.1c-0.4-0.4-0.7-0.9-0.9-1.5
		c-0.2-0.6-0.3-1.1-0.3-1.7c0-0.7,0.1-1.3,0.3-1.9c0.2-0.6,0.5-1.1,1-1.5s0.9-0.8,1.5-1c0.6-0.2,1.2-0.4,1.9-0.4
		c0.6,0,1.2,0.1,1.7,0.3c0.6,0.2,1,0.6,1.4,1L301.6,390z"/>
	<path d="M304.3,388.1h5.8v1.1h-4.5v2.7h4.2v1.1h-4.2v2.9h4.8v1.1h-6V388.1z"/>
	<path d="M312,388.1h3.1c0.6,0,1,0.1,1.4,0.2c0.4,0.2,0.7,0.4,0.9,0.6c0.2,0.2,0.4,0.5,0.4,0.8c0.1,0.3,0.1,0.6,0.1,0.9
		s0,0.6-0.1,0.9c-0.1,0.3-0.2,0.6-0.4,0.8c-0.2,0.2-0.5,0.4-0.9,0.6c-0.4,0.2-0.8,0.2-1.4,0.2h-1.9v3.9H312V388.1z M313.2,392h1.6
		c0.2,0,0.5,0,0.7-0.1c0.2,0,0.4-0.1,0.6-0.2c0.2-0.1,0.3-0.2,0.4-0.4c0.1-0.2,0.2-0.4,0.2-0.7c0-0.3-0.1-0.5-0.2-0.7
		c-0.1-0.2-0.3-0.3-0.4-0.4c-0.2-0.1-0.4-0.2-0.6-0.2c-0.2,0-0.5-0.1-0.7-0.1h-1.6V392z"/>
	<path d="M321.3,389.2h-2.9v-1.1h7v1.1h-2.9v7.8h-1.2V389.2z"/>
	<path d="M328.3,388.1h1.1l3.8,8.9h-1.4l-0.9-2.2h-4.2l-0.9,2.2h-1.4L328.3,388.1z M330.5,393.7l-1.7-4.1h0l-1.7,4.1H330.5z"/>
	<path d="M334.4,388.1h3.1c0.6,0,1,0.1,1.4,0.2c0.4,0.2,0.7,0.4,0.9,0.6c0.2,0.2,0.4,0.5,0.4,0.8s0.1,0.6,0.1,0.9
		c0,0.3-0.1,0.6-0.2,0.8c-0.1,0.3-0.2,0.5-0.4,0.7c-0.2,0.2-0.4,0.4-0.7,0.5c-0.3,0.1-0.6,0.2-0.9,0.3l2.5,4.1h-1.5L337,393h-1.3
		v3.9h-1.2V388.1z M335.6,392h1.6c0.2,0,0.5,0,0.7-0.1c0.2,0,0.4-0.1,0.6-0.2c0.2-0.1,0.3-0.2,0.4-0.4c0.1-0.2,0.2-0.4,0.2-0.7
		c0-0.3-0.1-0.5-0.2-0.7c-0.1-0.2-0.3-0.3-0.4-0.4c-0.2-0.1-0.4-0.2-0.6-0.2c-0.2,0-0.5-0.1-0.7-0.1h-1.6V392z"/>
</g>
<g>
	<path d="M17.6,390c-0.3-0.3-0.6-0.6-1-0.8c-0.4-0.2-0.8-0.3-1.2-0.3c-0.5,0-1,0.1-1.4,0.3c-0.4,0.2-0.8,0.4-1,0.8
		c-0.3,0.3-0.5,0.7-0.7,1.2c-0.2,0.4-0.2,0.9-0.2,1.4c0,0.5,0.1,0.9,0.2,1.3c0.2,0.4,0.4,0.8,0.7,1.1c0.3,0.3,0.6,0.6,1,0.8
		c0.4,0.2,0.9,0.3,1.4,0.3c0.5,0,1-0.1,1.3-0.3s0.7-0.5,1-0.9l1,0.8c-0.1,0.1-0.2,0.2-0.4,0.4c-0.2,0.2-0.4,0.3-0.7,0.5
		c-0.3,0.2-0.6,0.3-1,0.5c-0.4,0.1-0.8,0.2-1.4,0.2c-0.7,0-1.3-0.1-1.9-0.4c-0.6-0.3-1.1-0.6-1.4-1.1c-0.4-0.4-0.7-0.9-0.9-1.5
		c-0.2-0.6-0.3-1.1-0.3-1.7c0-0.7,0.1-1.3,0.3-1.9c0.2-0.6,0.5-1.1,1-1.5s0.9-0.8,1.5-1c0.6-0.2,1.2-0.4,1.9-0.4
		c0.6,0,1.2,0.1,1.7,0.3c0.6,0.2,1,0.6,1.4,1L17.6,390z"/>
	<path d="M23.1,388.1h1.1L28,397h-1.4l-0.9-2.2h-4.2l-0.9,2.2h-1.4L23.1,388.1z M25.3,393.7l-1.7-4.1h0l-1.7,4.1H25.3z"/>
	<path d="M29.2,388.1h1.6l4.9,7.3h0v-7.3h1.2v8.9h-1.5l-5-7.3h0v7.3h-1.2V388.1z"/>
	<path d="M45.4,390c-0.3-0.3-0.6-0.6-1-0.8c-0.4-0.2-0.8-0.3-1.2-0.3c-0.5,0-1,0.1-1.4,0.3c-0.4,0.2-0.8,0.4-1,0.8
		c-0.3,0.3-0.5,0.7-0.7,1.2c-0.2,0.4-0.2,0.9-0.2,1.4c0,0.5,0.1,0.9,0.2,1.3c0.2,0.4,0.4,0.8,0.7,1.1c0.3,0.3,0.6,0.6,1,0.8
		c0.4,0.2,0.9,0.3,1.4,0.3c0.5,0,1-0.1,1.3-0.3c0.4-0.2,0.7-0.5,1-0.9l1,0.8c-0.1,0.1-0.2,0.2-0.4,0.4c-0.2,0.2-0.4,0.3-0.7,0.5
		c-0.3,0.2-0.6,0.3-1,0.5c-0.4,0.1-0.8,0.2-1.4,0.2c-0.7,0-1.3-0.1-1.9-0.4c-0.6-0.3-1.1-0.6-1.4-1.1c-0.4-0.4-0.7-0.9-0.9-1.5
		c-0.2-0.6-0.3-1.1-0.3-1.7c0-0.7,0.1-1.3,0.3-1.9c0.2-0.6,0.5-1.1,1-1.5s0.9-0.8,1.5-1c0.6-0.2,1.2-0.4,1.9-0.4
		c0.6,0,1.2,0.1,1.7,0.3c0.6,0.2,1,0.6,1.4,1L45.4,390z"/>
	<path d="M48.1,388.1h5.8v1.1h-4.5v2.7h4.2v1.1h-4.2v2.9H54v1.1h-6V388.1z"/>
	<path d="M55.8,388.1H57v7.8h4.1v1.1h-5.3V388.1z"/>
	<path d="M65.1,388.1h1.1L70,397h-1.4l-0.9-2.2h-4.2l-0.9,2.2h-1.4L65.1,388.1z M67.3,393.7l-1.7-4.1h0l-1.7,4.1H67.3z"/>
	<path d="M71.2,388.1h3.1c0.6,0,1,0.1,1.4,0.2c0.4,0.2,0.7,0.4,0.9,0.6c0.2,0.2,0.4,0.5,0.4,0.8s0.1,0.6,0.1,0.9
		c0,0.3-0.1,0.6-0.2,0.8c-0.1,0.3-0.2,0.5-0.4,0.7c-0.2,0.2-0.4,0.4-0.7,0.5c-0.3,0.1-0.6,0.2-0.9,0.3l2.5,4.1H76l-2.3-3.9h-1.3v3.9
		h-1.2V388.1z M72.4,392H74c0.2,0,0.5,0,0.7-0.1c0.2,0,0.4-0.1,0.6-0.2c0.2-0.1,0.3-0.2,0.4-0.4c0.1-0.2,0.2-0.4,0.2-0.7
		c0-0.3-0.1-0.5-0.2-0.7c-0.1-0.2-0.3-0.3-0.4-0.4c-0.2-0.1-0.4-0.2-0.6-0.2c-0.2,0-0.5-0.1-0.7-0.1h-1.6V392z"/>
</g>
</svg>
